<?xml version="1.0" standalone="no"?>
<!DOCTYPE svg PUBLIC "-//W3C//DTD SVG 1.1//EN" "http://www.w3.org/Graphics/SVG/1.1/DTD/svg11.dtd" >
<svg xmlns="http://www.w3.org/2000/svg" xmlns:xlink="http://www.w3.org/1999/xlink" version="1.1">
<metadata></metadata>
<defs>
<font id="kontanterbold" horiz-adv-x="2048" >
<font-face units-per-em="2048" ascent="1536" descent="-512" />
<missing-glyph horiz-adv-x="500" />
<glyph horiz-adv-x="0" />
<glyph unicode="&#xd;" horiz-adv-x="1024" />
<glyph unicode=" " />
<glyph unicode="!" d="M866 0v315h316v-315h-316zM866 473v1106h316v-1106h-316z" />
<glyph unicode="&#x26;" d="M281 0v315l303 580l-129 152v59q0 100 49 197q43 84 125 149q78 61 175 94t204 33q106 0 202.5 -33t173.5 -94q82 -66 125 -149q49 -96 50 -197h-316q0 31 -19.5 59.5t-51 50t-74.5 35t-90 13.5q-78 0 -141.5 -33t-86.5 -80l322 -375l96 172h365v-317h-181l-63 -109 l448 -522h-415l-199 231l-133 -231h-739zM631 315h205l98 172l-131 154z" />
<glyph unicode="+" d="M551 631v317h315v316h316v-316h315v-317h-315v-316h-316v316h-315z" />
<glyph unicode="," d="M315 -158v473h316l-158 -473h-158z" />
<glyph unicode="-" d="M629 631v317h790v-317h-790z" />
<glyph unicode="." d="M315 0v315h316v-315h-316z" />
<glyph unicode="/" d="M266 0l1129 1579h387l-1129 -1579h-387z" />
<glyph unicode="0" d="M393 442v695q0 111 62 206q51 86 147 148q86 59 194.5 89t227.5 30t227.5 -30t194.5 -89q94 -62 147 -148q61 -96 62 -206v-695q0 -113 -62 -206q-53 -86 -147 -148q-86 -59 -194.5 -89t-227.5 -30t-227.5 30t-194.5 89q-96 61 -147 148q-61 94 -62 206zM709 442 q0 -47 67 -92q47 -33 111.5 -49t136.5 -16t136.5 16t111.5 49q68 45 67 92v189h-630v-189zM709 948h630v189q0 47 -67 92q-47 31 -111.5 48t-136.5 17t-136.5 -17t-111.5 -48q-68 -45 -67 -92v-189z" />
<glyph unicode="1" d="M709 0v315h157v158h-157v315h157v476h-157v315h473v-791h157v-315h-157v-158h157v-315h-630z" />
<glyph unicode="2" d="M393 1137q0 111 62 206q51 86 147 148q86 59 194.5 89t227.5 30t227.5 -30t194.5 -89q94 -61 147 -148q61 -96 62 -206v-56l-604 -766h604v-315h-1258l930 1176q-20 29 -55 53q-47 31 -111.5 48t-136.5 17t-136.5 -17t-111.5 -48q-68 -45 -67 -92h-316z" />
<glyph unicode="3" d="M393 442h316q0 -47 67 -92q47 -33 111.5 -49t136.5 -16t136.5 16t111.5 49q68 45 67 92v189h-788l473 633h-569v315h1200l-473 -631h473v-506q0 -113 -62 -206q-53 -86 -147 -148q-86 -59 -194.5 -89t-227.5 -30t-227.5 30t-194.5 89q-96 61 -147 148q-61 94 -62 206z " />
<glyph unicode="4" d="M309 315l832 1264h379l-625 -948h844v-316h-221v-315h-316v315h-893z" />
<glyph unicode="5" d="M393 442v346h316v-346q0 -47 67 -92q47 -33 111.5 -49t136.5 -16t136.5 16t111.5 49q29 18 47 41l-926 881v307h1200v-315h-723l785 -752v-70q0 -113 -62 -206q-53 -86 -147 -148q-86 -59 -194.5 -89t-227.5 -30t-227.5 30t-194.5 89q-96 61 -147 148q-61 94 -62 206z " />
<glyph unicode="6" d="M393 442v979v158h1262v-315h-946v-158h946v-664q0 -113 -62 -206q-53 -86 -147 -148q-86 -59 -194.5 -89t-227.5 -30t-227.5 30t-194.5 89q-96 61 -147 148q-61 94 -62 206zM709 442q0 -47 67 -92q47 -33 111.5 -49t136.5 -16t136.5 16t111.5 49q68 45 67 92v346h-630 v-346z" />
<glyph unicode="7" d="M393 948v631h1262l-758 -1579h-350l606 1264h-444v-316h-316z" />
<glyph unicode="8" d="M393 442v84l346 262l-346 265v84q0 111 62 206q51 86 147 148q86 59 194.5 89t227.5 30t227.5 -30t194.5 -89q94 -61 147 -148q61 -96 62 -206v-84l-346 -265l346 -262v-84q0 -113 -62 -206q-53 -86 -147 -148q-86 -59 -194.5 -89t-227.5 -30t-227.5 30t-194.5 89 q-96 61 -147 148q-61 94 -62 206zM741 379q6 -8 15.5 -14.5t19.5 -14.5q47 -31 111.5 -48t136.5 -17t136.5 17t111.5 48q20 14 35 29l-283 190zM741 1200l283 -190l283 190q-14 12 -35 29q-47 31 -111.5 48t-136.5 17t-136.5 -17t-111.5 -48q-10 -8 -19.5 -14.5t-15.5 -14.5 z" />
<glyph unicode="9" d="M393 0v315h946v158h-946v664q0 111 62 206q51 86 147 148q86 59 194.5 89t227.5 30t227.5 -30t194.5 -89q94 -61 147 -148q61 -96 62 -206v-1137h-1262zM709 788h630v349q0 47 -67 92q-47 31 -111.5 48t-136.5 17t-136.5 -17t-111.5 -48q-68 -45 -67 -92v-349z" />
<glyph unicode="=" d="M471 397v316h1106v-316h-1106zM471 870v316h1106v-316h-1106z" />
<glyph unicode="?" d="M393 1106q0 111 62 207q27 41 63.5 79t83.5 68q86 57 194.5 88t227.5 31t227.5 -30.5t194.5 -88.5q47 -31 83.5 -68.5t63.5 -78.5q61 -96 62 -207v-80l-473 -348v-205h-316v365l445 325q-8 10 -18.5 17.5t-20.5 17.5q-47 31 -111.5 48.5t-136.5 17.5t-136.5 -17.5 t-111.5 -48.5q-68 -49 -67 -92h-316zM866 0v315h316v-315h-316z" />
<glyph unicode="A" d="M197 0l675 1579h304l673 -1579h-342l-831 315l-135 -315h-344zM811 631l516 -203l-303 702z" />
<glyph unicode="B" d="M360 0v1579h1106v-295l-125 -219q104 -41 185 -121q78 -78 120 -179t42 -212t-42 -212t-120 -179t-179.5 -120t-211.5 -42h-775zM676 532l145 256h-145v-256zM676 1106h325l91 158h-416v-158zM915 315h220q49 0 92 18.5t75.5 51.5t51 76t18.5 92q0 86 -54 150.5 t-136 80.5z" />
<glyph unicode="C" d="M324 788q0 160 59 310q61 154 180 272q119 119 273 180q150 59 309 60q158 0 307 -60q154 -61 272 -180l-223 -223q-43 43 -94 73.5t-104 49.5v-961q113 37 198 123l223 -223q-119 -119 -272 -180q-143 -59 -307 -60q-80 0 -158 14.5t-151 45.5q-154 61 -273 180 t-180 272q-59 150 -59 307zM664 631q36 -115 122 -199q86 -86 201 -123v322h-323zM664 948h323v322q-55 -18 -106.5 -49t-94.5 -74q-86 -86 -122 -199z" />
<glyph unicode="D" d="M305 0v631h316v-316h331q37 0 72 7l-719 718v539h647q162 0 308 -61q139 -61 251 -170q109 -109 168 -250q63 -145 64 -310q0 -162 -64 -307q-57 -139 -168 -250q-106 -106 -251 -170q-146 -61 -308 -61h-647zM621 1171l690 -690q53 61 84.5 140t31.5 167 q0 98 -37.5 184.5t-102 151t-150.5 102.5t-185 38h-331v-93z" />
<glyph unicode="E" d="M420 0v948h207l-207 316v315h1167v-315h-790l209 -316h520v-317h-314l416 -631h-1208zM735 315h307l-206 316h-101v-316z" />
<glyph unicode="F" d="M440 0v948h207l-207 316v315h1168v-315h-791l209 -316h518v-317h-788v-631h-316z" />
<glyph unicode="G" d="M268 1110q61 143 174 260q115 115 263 176q76 33 155.5 48.5t163.5 15.5t164 -15.5t155 -48.5q150 -61 261 -176l-224 -223q-72 72 -163 109.5t-193 37.5q-84 0 -160 -25.5t-139 -71.5t-109.5 -109.5t-70.5 -139.5h1300v-160q0 -164 -65 -319q-61 -145 -176 -260 q-111 -115 -261 -176q-76 -33 -155.5 -48.5t-163.5 -15.5t-164 15.5t-155 48.5q-147 61 -263 176q-113 117 -174 260q-65 154 -65 314q0 171 65 327zM543 631q37 -109 123 -199q43 -43 94 -73.5t106 -49.5v322h-323zM1182 309q55 18 106 49t92 74q90 90 123 199h-321v-322z " />
<glyph unicode="H" d="M360 0v1579h316v-631h696v631h316v-1579h-316v158h-696v-158h-316zM676 473h190v158h-190v-158zM1182 473h190v158h-190v-158z" />
<glyph unicode="I" d="M709 0v315h157v473h-157v318h157v158h-157v315h630v-315h-157v-158h157v-318h-157v-473h157v-315h-630z" />
<glyph unicode="J" d="M471 0v633h315v-318h254q45 0 85 17.5t70 47.5t48.5 69.5t18.5 85.5l-730 729h-61v315h1106v-1042q0 -109 -40 -205t-118 -174q-76 -76 -173 -117t-206 -41h-569zM979 1264l283 -283v283h-283z" />
<glyph unicode="K" d="M356 0v1579h316v-414l119 -135l481 549h420l-691 -788l691 -791h-420l-295 338l-305 -338h-316zM672 416l119 135l-119 135v-270z" />
<glyph unicode="L" d="M471 0v1579h315v-535l730 -729h61v-315h-1106zM786 315h283l-283 283v-283z" />
<glyph unicode="M" d="M233 0v1579h314l477 -823l477 823h311v-1579h-315v942l-291 -502l256 -440h-364l-74 127l-74 -127h-364l256 440l-291 502v-942h-318z" />
<glyph unicode="N" d="M330 0v1579h315l758 -1042v1042h315v-1579h-317l-324 446l-432 -446h-315zM645 459l246 246l-246 337v-583z" />
<glyph unicode="O" d="M268 1110q61 143 174 260q115 115 263 176q76 33 155.5 48.5t163.5 15.5t164 -15.5t155 -48.5q150 -61 261 -176q115 -115 176 -260q65 -154 65 -317v-5q0 -164 -65 -319q-61 -145 -176 -260q-111 -115 -261 -176q-76 -33 -155.5 -48.5t-163.5 -15.5t-164 15.5t-155 48.5 q-147 61 -263 176q-113 117 -174 260q-65 154 -65 314q0 171 65 327zM518 788q0 -104 40 -196t108.5 -159.5t161 -107.5t196.5 -40q125 0 227 53l-678 680q-27 -53 -41 -111t-14 -119zM797 1241l678 -680q27 53 41 109.5t14 117.5q0 104 -40 196.5t-108.5 161t-161 108.5 t-196.5 40q-125 0 -227 -53z" />
<glyph unicode="P" d="M369 0v788h362l-362 486v305h757q111 0 212.5 -42t179.5 -120t119.5 -179t41.5 -212t-42 -212t-119 -179q-78 -78 -179.5 -120t-212.5 -42h-442v-473h-315zM772 1264l354 -476q49 0 92.5 18.5t76 51.5t51 76t18.5 92t-18.5 92t-51 76t-75.5 51.5t-93 18.5h-354z" />
<glyph unicode="Q" d="M106 788q0 166 66 322q61 145 176 260q111 115 260 176q152 63 320 64q84 0 163.5 -15.5t155.5 -48.5q147 -61 262 -176q111 -115 177 -260q31 -78 47 -157t16 -165q0 -162 -63 -319q-16 -35 -35 -69.5t-41 -67.5l332 -332h-447l-109 109q-33 -23 -67.5 -41.5 t-71.5 -34.5q-76 -33 -155.5 -48.5t-163.5 -15.5q-168 0 -320 64q-150 61 -260 176q-115 115 -176 260q-66 156 -66 319zM422 788q0 -104 40 -196t108.5 -159.5t161 -107.5t196.5 -40q125 0 227 53l-678 680q-27 -53 -41 -110.5t-14 -119.5zM700 1241l678 -680 q27 53 41.5 109.5t14.5 117.5q0 104 -40 196.5t-108.5 161t-161 108.5t-196.5 40q-125 0 -228 -53z" />
<glyph unicode="R" d="M350 0v788h355l-355 469v322h758q111 0 212 -42t179 -120t120 -179t42 -212t-42 -212t-120 -179q-41 -41 -88 -72t-100 -51l387 -512h-395l-359 473h-278v-473h-316zM741 1264l359 -476h8q49 0 91 18.5t75 51.5t51 76t18 92t-18 92t-51 76t-75 51.5t-91 18.5h-367z" />
<glyph unicode="S" d="M393 442v31h316v-31q0 -47 67 -92q47 -33 111.5 -49t136.5 -16t136.5 16t111.5 49q20 14 39 33l-918 674v80q0 111 62 206q51 86 147 148q86 59 194.5 89t227.5 30t227.5 -30t194.5 -89q94 -61 147 -148q61 -96 62 -206v-31h-316v31q0 47 -67 92q-47 31 -111.5 48 t-136.5 17t-136.5 -17t-111.5 -48q-12 -8 -21.5 -16.5t-17.5 -16.5l918 -674v-80q0 -113 -62 -206q-53 -86 -147 -148q-86 -59 -194.5 -89t-227.5 -30t-227.5 30t-194.5 89q-96 61 -147 148q-61 94 -62 206z" />
<glyph unicode="T" d="M377 1264v315h1294v-315h-489v-158h426v-318h-426v-788h-316v788h-426v318h426v158h-489z" />
<glyph unicode="U" d="M344 647v932h318l724 -727v727h316v-932q0 -143 -53 -264q-51 -123 -146 -215q-94 -96 -215 -145q-121 -54 -264 -54t-264 54q-121 49 -215 145q-47 47 -84 101.5t-64 113.5q-53 129 -53 264zM662 647q0 -76 28.5 -141.5t77.5 -114.5t114.5 -77.5t141.5 -28.5 q96 0 176 45t129 121l-667 667v-471z" />
<glyph unicode="V" d="M197 1579h344l831 -315l135 315h342l-673 -1579h-304zM721 1151l303 -702l213 499z" />
<glyph unicode="W" d="M233 0v1579h318v-944l291 504l-256 440h364l74 -127l74 127h364l-256 -440l291 -504v944h315v-1579h-311l-477 823l-477 -823h-314z" />
<glyph unicode="X" d="M307 0l527 788l-527 791h1434l-527 -791l527 -788h-1434zM897 315h252l-125 189zM897 1264l127 -191l125 191h-252z" />
<glyph unicode="Y" d="M244 1579h1558l-620 -932v-647h-316v647zM836 1264l188 -285l188 285h-376z" />
<glyph unicode="Z" d="M311 0l838 1264h-432v-316h-318v631h1338l-838 -1264h449v316h315v-631h-1352z" />
<glyph unicode="a" d="M197 0l675 1579h304l673 -1579h-342l-483 1130l-483 -1130h-344z" />
<glyph unicode="b" d="M360 0v1579h791v-473q106 -4 202.5 -45t172.5 -117q78 -78 120 -179t42 -212t-42 -212t-120 -179t-179.5 -120t-211.5 -42h-775zM676 315h459q49 0 92 18.5t75.5 51.5t51 76t18.5 92t-18.5 92t-51 75t-75.5 50t-92 18h-459v-473zM676 1106h158v158h-158v-158z" />
<glyph unicode="c" d="M272 788q0 160 60 310q33 78 78 145.5t104 126.5q121 121 270 180q74 31 152 45.5t158 14.5t157.5 -14.5t151.5 -45.5q78 -31 145.5 -75.5t126.5 -104.5l-225 -223q-59 59 -131 94q-73 35 -149 47q-38 6 -77 6t-78 -6q-79 -12 -149 -47l678 -680l232 -229 q-23 -35 -47.5 -64.5t-53.5 -58.5q-55 -55 -123 -100q-72 -49 -149 -80q-74 -31 -151.5 -45.5t-157.5 -14.5t-158 14.5t-152 45.5q-150 59 -270 180q-59 59 -104 126.5t-78 145.5q-59 150 -60 307zM588 788q0 -100 39 -192t110 -164q72 -72 163.5 -109.5t193.5 -37.5 q121 0 227 53l-678 680q-55 -104 -55 -230z" />
<glyph unicode="d" d="M305 0v473h316v-158h331q78 0 148.5 23.5t129 65.5t101.5 100.5t68 126.5h-1094v948h647q162 0 308 -61q139 -61 251 -170q109 -109 168 -250q63 -145 64 -310q0 -162 -64 -307q-57 -139 -168 -250q-106 -106 -251 -170q-146 -61 -308 -61h-647zM621 948h778 q-25 68 -68 126.5t-101.5 100.5t-129 65.5t-148.5 23.5h-331v-316z" />
<glyph unicode="e" d="M440 0v1579h1168v-315h-852v-111h788v-315h-788v-97h788v-315h-788v-111h852v-315h-1168z" />
<glyph unicode="f" d="M440 0v1579h1168v-315h-852v-111h788v-315h-788v-97h788v-315h-788v-426h-316z" />
<glyph unicode="g" d="M203 788q0 160 59 310q33 78 77 145.5t103 126.5t127 104.5t146 75.5q74 31 151.5 45.5t157.5 14.5t158 -14.5t151 -45.5q150 -59 271 -180l-224 -223q-86 84 -198 123v-322h663v-160q0 -158 -59 -307q-33 -78 -78 -145.5t-104 -126.5t-126 -104.5t-145 -75.5 q-74 -31 -151.5 -45.5t-157.5 -14.5t-158 14.5t-151 45.5q-78 31 -145.5 76t-127.5 104q-59 59 -103 126.5t-77 145.5q-59 150 -59 307zM518 789.5q0 -97.5 37 -190.5t111 -167q43 -43 94 -73.5t106 -49.5v961q-113 -37 -200 -123q-74 -74 -111 -167t-37 -190.5zM1182 309 q55 18 106 49t92 74q90 90 123 199h-321v-322z" />
<glyph unicode="h" d="M360 0v1579h316v-631h696v631h316v-1579h-316v158h-696v-158h-316zM676 473h696v158h-696v-158z" />
<glyph unicode="i" d="M709 0v315h157v949h-157v315h630v-315h-157v-949h157v-315h-630z" />
<glyph unicode="j" d="M471 0v631h315v-316h254q45 0 85 17.5t71 48.5t48.5 71t17.5 85v727h-791v315h1106v-1042q0 -109 -40 -206.5t-118 -172.5q-76 -78 -173 -118t-206 -40h-569z" />
<glyph unicode="k" d="M356 0v1579h316l305 -338l295 338h420l-691 -791l691 -788h-420l-481 549l-119 -135v-414h-316zM672 893l119 137l-119 135v-272z" />
<glyph unicode="l" d="M471 0v1579h315v-1264h476v316h315v-631h-1106z" />
<glyph unicode="m" d="M233 0v1579h314l319 -283v283h316v-283l319 283h311v-1579h-315v1155l-315 -278v-877h-316v877l-315 278v-1155h-318z" />
<glyph unicode="n" d="M330 0v1579h315l758 -1042v1042h315v-1579h-1388zM645 315h526l-526 727v-727z" />
<glyph unicode="o" d="M268 1110q61 143 174 260q115 115 263 176q76 33 155.5 48.5t163.5 15.5t164 -15.5t155 -48.5q150 -61 261 -176q115 -115 176 -260q65 -154 65 -317v-5q0 -164 -65 -319q-61 -145 -176 -260q-111 -115 -261 -176q-76 -33 -155.5 -48.5t-163.5 -15.5t-164 15.5t-155 48.5 q-147 61 -263 176q-113 117 -174 260q-65 154 -65 314q0 171 65 327zM518 788q0 -104 40 -196t108.5 -159.5t161 -107.5t196.5 -40t196.5 40t161 107.5t108.5 159.5t40 196t-40 196.5t-108.5 161t-161 108.5t-196.5 40t-196.5 -40t-161 -108.5t-108.5 -160.5t-40 -197z" />
<glyph unicode="p" d="M369 0v788h362l-362 486v305h757q111 0 212.5 -42t179.5 -120t119.5 -179t41.5 -212t-42 -212t-119 -179q-78 -78 -179.5 -120t-212.5 -42h-442v-473h-315zM772 1264l354 -476q49 0 92.5 18.5t76 51.5t51 76t18.5 92t-18.5 92t-51 76t-75.5 51.5t-93 18.5h-354z" />
<glyph unicode="q" d="M106 788q0 166 66 322q61 145 176 260q111 115 260 176q152 63 320 64q84 0 163.5 -15.5t155.5 -48.5q147 -61 262 -176q111 -115 177 -260q31 -78 47 -157t16 -165q0 -162 -63 -319q-16 -35 -35 -69.5t-41 -67.5l332 -332h-447l-109 109q-33 -23 -67.5 -41.5 t-71.5 -34.5q-76 -33 -155.5 -48.5t-163.5 -15.5q-168 0 -320 64q-150 61 -260 176q-115 115 -176 260q-66 156 -66 319zM422 788q0 -106 45 -206l223 223l-213 213q-27 -53 -41 -110.5t-14 -119.5zM682 348q111 -63 246 -63q125 0 227 53l-242 244zM700 1241l678 -680 q27 53 41.5 109.5t14.5 117.5q0 104 -40 196.5t-108.5 161t-161 108.5t-196.5 40q-125 0 -228 -53z" />
<glyph unicode="r" d="M350 0v1579h758q111 0 212 -42t179 -120t120 -179t42 -212t-42 -212t-120 -179q-41 -41 -88 -72t-100 -51l387 -512h-395l-637 840v-840h-316zM741 1264l359 -476h8q49 0 91 18.5t75 51.5t51 76t18 92t-18 92t-51 76t-75 51.5t-91 18.5h-367z" />
<glyph unicode="s" d="M393 442v31h316v-31q0 -47 67 -92q47 -33 111.5 -49t136.5 -16t136.5 16t111.5 49q68 45 67 92v189h-946v506q0 111 62 206q51 86 147 148q86 59 194.5 89t227.5 30t227.5 -30t194.5 -89q94 -61 147 -148q61 -96 62 -206v-31h-316v31q0 47 -67 92q-47 31 -111.5 48 t-136.5 17t-136.5 -17t-111.5 -48q-68 -45 -67 -92v-189h946v-506q0 -113 -62 -206q-53 -86 -147 -148q-86 -59 -194.5 -89t-227.5 -30t-227.5 30t-194.5 89q-96 61 -147 148q-61 94 -62 206z" />
<glyph unicode="t" d="M377 948v631h1294v-631h-315v316h-174v-949h157v-315h-630v315h157v949h-174v-316h-315z" />
<glyph unicode="u" d="M344 647v932h522v-315h-204v-617q0 -76 28.5 -141.5t77.5 -114.5t114.5 -77.5t141.5 -28.5t141.5 28.5t114.5 77.5t77.5 114.5t28.5 141.5v617h-204v315h520v-932q0 -143 -53 -264q-49 -121 -146 -215q-94 -96 -215 -145q-121 -54 -264 -54t-264 54q-121 49 -215 145 q-96 92 -148 215q-53 129 -53 264z" />
<glyph unicode="v" d="M197 1579h1652l-673 -1579h-304zM676 1264l348 -815l348 815h-696z" />
<glyph unicode="w" d="M233 0v1579h318v-1155l315 278v877h316v-877l315 -278v1155h315v-1579h-311l-319 283v-283h-316v283l-319 -283h-314z" />
<glyph unicode="x" d="M307 0l527 788l-527 791h381l336 -506l336 506h381l-527 -791l527 -788h-381l-336 504l-336 -504h-381z" />
<glyph unicode="y" d="M244 1579h381l399 -600l399 600h379l-1052 -1579h-379l463 694z" />
<glyph unicode="z" d="M311 0l418 631h-266v317h477l209 316h-750v315h1338l-418 -631h344v-948h-1352zM899 315h449v316h-240z" />
<glyph unicode="&#xa0;" />
<glyph unicode="&#xad;" d="M629 631v317h790v-317h-790z" />
<glyph unicode="&#xb7;" d="M866 631v317h316v-317h-316z" />
<glyph unicode="&#xc0;" d="M197 0h344l135 315l831 -315h342l-673 1579h-304zM629 2052h315l238 -315h-316zM811 631l213 499l303 -702z" />
<glyph unicode="&#xc1;" d="M197 0l675 1579h304l673 -1579h-342l-831 315l-135 -315h-344zM811 631l516 -203l-303 702zM866 1737l238 315h315l-237 -315h-316z" />
<glyph unicode="&#xc2;" d="M197 0l675 1579h304l673 -1579h-342l-831 315l-135 -315h-344zM565 1737l238 315h442l238 -315h-318l-141 190l-141 -190h-318zM811 631l516 -203l-303 702z" />
<glyph unicode="&#xc3;" d="M197 0h344l135 315l831 -315h342l-673 1579h-304zM551 1737q0 49 18.5 92t51 75.5t74.5 51t91 18.5h476q33 0 55 22.5t22 55.5h158q0 -49 -18.5 -92t-51 -75t-74.5 -50t-91 -18h-476q-33 0 -55 -23.5t-22 -56.5h-158zM811 631l213 499l303 -702z" />
<glyph unicode="&#xc4;" d="M197 0h344l135 315l831 -315h342l-673 1579h-304zM629 1737v315h315v-315h-315zM811 631l213 499l303 -702zM1104 1737v315h315v-315h-315z" />
<glyph unicode="&#xc5;" d="M197 0l634 1485q-55 45 -88.5 109.5t-33.5 142.5q0 66 24.5 123t67.5 100t100 67.5t123 24.5t123 -24.5t100 -67.5t67.5 -100.5t24.5 -122.5q0 -78 -33.5 -142.5t-91.5 -109.5l635 -1485h-342l-831 315l-135 -315h-344zM811 631l516 -203l-303 702zM866 1737 q0 -66 46 -112t112 -46t112 46t46 112t-46 111.5t-112 45.5t-112 -46t-46 -111z" />
<glyph unicode="&#xc6;" horiz-adv-x="2045" d="M-35 0l674 1579h1405v-315h-791l207 -316h520v-317h-311l414 -631h-1209v152l-432 163l-135 -315h-342zM578 631l296 -117v422l-83 194zM1190 315h293l-193 316h-100v-316z" />
<glyph unicode="&#xc7;" d="M324 788q0 160 59 310q61 154 180 272q119 119 273 180q150 59 309 60q158 0 307 -60q154 -61 272 -180l-223 -223q-43 43 -94 73.5t-104 49.5v-961q113 37 198 123l223 -223q-119 -119 -272 -180q-109 -45 -229 -58v-51h39q84 0 141 -57.5t57 -138.5q0 -82 -57 -139.5 t-141 -57.5h-197v158h197q16 0 28.5 11t12.5 28q0 16 -12.5 27t-28.5 11h-197v209q-59 6 -116.5 20.5t-112.5 37.5q-154 61 -273 180t-180 272q-59 150 -59 307zM664 631q37 -115 122 -199q86 -86 201 -123v322h-323zM664 948h323v322q-55 -18 -106.5 -49t-94.5 -74 q-86 -86 -122 -199z" />
<glyph unicode="&#xc8;" d="M420 0v948h207l-207 316v315h1167v-315h-790l209 -316h520v-317h-314l416 -631h-1208zM629 2052h315l238 -315h-316zM735 315h307l-206 316h-101v-316z" />
<glyph unicode="&#xc9;" d="M420 0v948h207l-207 316v315h1167v-315h-790l209 -316h520v-317h-314l416 -631h-1208zM735 315h307l-206 316h-101v-316zM866 1737l238 315h315l-237 -315h-316z" />
<glyph unicode="&#xca;" d="M420 0v948h207l-207 316v315h1167v-315h-790l209 -316h520v-317h-314l416 -631h-1208zM565 1737l238 315h442l238 -315h-318l-141 190l-141 -190h-318zM735 315h307l-206 316h-101v-316z" />
<glyph unicode="&#xcb;" d="M420 0v948h207l-207 316v315h1167v-315h-790l209 -316h520v-317h-314l416 -631h-1208zM629 1737v315h315v-315h-315zM735 315h307l-206 316h-101v-316zM1104 1737v315h315v-315h-315z" />
<glyph unicode="&#xcc;" d="M668 2052h317l236 -315h-316zM748 0h630v315h-157v473h157v318h-157v158h157v315h-630v-315h157v-158h-157v-318h157v-473h-157v-315z" />
<glyph unicode="&#xcd;" d="M668 0h632v315h-157v473h157v318h-157v158h157v315h-632v-315h159v-158h-159v-318h159v-473h-159v-315zM827 1737l236 315h315l-235 -315h-316z" />
<glyph unicode="&#xce;" d="M565 1737l238 315h442l238 -315h-318l-141 190l-141 -190h-318zM709 0v315h157v473h-157v318h157v158h-157v315h630v-315h-157v-158h157v-318h-157v-473h157v-315h-630z" />
<glyph unicode="&#xcf;" d="M629 1737v315h315v-315h-315zM709 0h630v315h-157v473h157v318h-157v158h157v315h-630v-315h157v-158h-157v-318h157v-473h-157v-315zM1104 1737v315h315v-315h-315z" />
<glyph unicode="&#xd0;" d="M141 631v317h252l-94 92v539h649q160 0 307 -61q141 -61 250 -170q55 -53 97 -116.5t73 -133.5q61 -147 62 -310q0 -160 -62 -307q-31 -72 -72.5 -134t-97.5 -116q-53 -55 -115.5 -97t-134.5 -73q-147 -61 -307 -61h-649v631h-158zM616 315h332q35 0 70 7l-309 309h-93 v-316zM616 1171l691 -690q53 61 83.5 140t30.5 167q0 98 -36.5 184.5t-101 151t-150.5 102.5t-185 38h-332v-93z" />
<glyph unicode="&#xd1;" d="M330 0v1579h315l758 -1042v1042h315v-1579h-317l-324 446l-432 -446h-315zM551 1737q0 49 18.5 92t51 75.5t74.5 51t91 18.5h476q33 0 55 22.5t22 55.5h158q0 -49 -18.5 -91t-51 -75t-74.5 -51t-91 -18h-476q-33 0 -55 -23.5t-22 -56.5h-158zM645 459l246 246l-246 337 v-583z" />
<glyph unicode="&#xd2;" d="M203 788q0 -164 65 -319q61 -143 174 -260q115 -115 263 -176q76 -33 155.5 -48.5t163.5 -15.5t164 15.5t155 48.5q150 61 261 176q115 115 176 260q66 156 65 319q1 166 -65 322q-61 145 -176 260q-111 115 -261 176q-76 33 -155.5 48.5t-163.5 15.5t-164 -15.5 t-155 -48.5q-147 -61 -263 -176q-113 -117 -174 -260q-66 -156 -65 -322zM518 788q0 61 14.5 119t40.5 111l678 -680q-102 -53 -227 -53q-104 0 -196.5 40t-161 107.5t-108.5 159.5t-40 196zM629 2052h315l238 -315h-316zM797 1241q102 53 227 53q104 0 196.5 -40 t161 -108.5t108.5 -161t40 -196.5q0 -61 -14.5 -117.5t-40.5 -109.5z" />
<glyph unicode="&#xd3;" d="M203 788q0 -164 65 -319q61 -143 174 -260q115 -115 263 -176q76 -33 155.5 -48.5t163.5 -15.5t164 15.5t155 48.5q150 61 261 176q115 115 176 260q66 156 65 319q1 166 -65 322q-61 145 -176 260q-111 115 -261 176q-76 33 -155.5 48.5t-163.5 15.5t-164 -15.5 t-155 -48.5q-147 -61 -263 -176q-113 -117 -174 -260q-66 -156 -65 -322zM518 788q0 61 14.5 119t40.5 111l678 -680q-102 -53 -227 -53q-104 0 -196.5 40t-161 107.5t-108.5 159.5t-40 196zM797 1241q102 53 227 53q104 0 196.5 -40t161 -108.5t108.5 -161t40 -196.5 q0 -61 -14.5 -117.5t-40.5 -109.5zM866 1737l236 315h317l-237 -315h-316z" />
<glyph unicode="&#xd4;" d="M203 788q0 166 65 322q61 143 174 260q115 115 263 176q76 33 155.5 48.5t163.5 15.5t164 -15.5t155 -48.5q150 -61 261 -176q115 -115 176 -260q66 -156 65 -322q0 -164 -65 -319q-61 -145 -176 -260q-111 -115 -261 -176q-76 -33 -155.5 -48.5t-163.5 -15.5t-164 15.5 t-155 48.5q-147 61 -263 176q-113 117 -174 260q-66 156 -65 319zM518 788q0 -104 40 -196t108.5 -159.5t161 -107.5t196.5 -40q125 0 227 53l-678 680q-27 -53 -41 -111t-14 -119zM565 1737l238 315h442l238 -315h-318l-141 190l-141 -190h-318zM797 1241l678 -680 q27 53 41 109.5t14 117.5q0 104 -40 196.5t-108.5 161t-161 108.5t-196.5 40q-125 0 -227 -53z" />
<glyph unicode="&#xd5;" d="M203 788q0 -164 65 -319q61 -143 174 -260q115 -115 263 -176q76 -33 155.5 -48.5t163.5 -15.5t164 15.5t155 48.5q150 61 261 176q115 115 176 260q66 156 65 319q1 166 -65 322q-61 145 -176 260q-111 115 -261 176q-76 33 -155.5 48.5t-163.5 15.5t-164 -15.5 t-155 -48.5q-147 -61 -263 -176q-113 -117 -174 -260q-66 -156 -65 -322zM518 788q0 61 14.5 119t40.5 111l678 -680q-102 -53 -227 -53q-104 0 -196.5 40t-161 107.5t-108.5 159.5t-40 196zM551 1737q0 49 18.5 92t51 75.5t74.5 51t91 18.5h476q33 0 55 22.5t22 55.5h158 q0 -49 -18.5 -91t-51 -75t-74.5 -51t-91 -18h-476q-33 0 -55 -23.5t-22 -56.5h-158zM797 1241q102 53 227 53q104 0 196.5 -40t161 -108.5t108.5 -161t40 -196.5q0 -61 -14.5 -117.5t-40.5 -109.5z" />
<glyph unicode="&#xd6;" d="M203 788q0 -164 65 -319q61 -143 174 -260q115 -115 263 -176q76 -33 155.5 -48.5t163.5 -15.5t164 15.5t155 48.5q150 61 261 176q115 115 176 260q66 156 65 319q1 166 -65 322q-61 145 -176 260q-111 115 -261 176q-76 33 -155.5 48.5t-163.5 15.5t-164 -15.5 t-155 -48.5q-147 -61 -263 -176q-113 -117 -174 -260q-66 -156 -65 -322zM518 788q0 61 14.5 119t40.5 111l678 -680q-102 -53 -227 -53q-104 0 -196.5 40t-161 107.5t-108.5 159.5t-40 196zM629 1737v315h315v-315h-315zM797 1241q102 53 227 53q104 0 196.5 -40 t161 -108.5t108.5 -161t40 -196.5q0 -61 -14.5 -117.5t-40.5 -109.5zM1104 1737v315h315v-315h-315z" />
<glyph unicode="&#xd8;" d="M10 0l332 332q-41 61 -74 137q-66 156 -65 319q0 166 65 322q61 143 174 260q115 115 263 176q76 33 155.5 48.5t163.5 15.5t164 -15.5t155 -48.5q72 -31 140 -76l106 109h447l-330 -332q41 -61 74 -137q66 -156 65 -322q0 -164 -65 -319q-61 -145 -176 -260 q-111 -115 -261 -176q-76 -33 -155.5 -48.5t-163.5 -15.5t-164 15.5t-155 48.5q-37 16 -72 34.5t-68 41.5l-108 -109h-447zM518 788q0 -61 14.5 -117.5t40.5 -109.5l228 227l-228 230q-27 -53 -41 -111t-14 -119zM797 338q102 -53 227 -53t227 53l-227 227zM797 1241 l227 -229l227 229q-102 53 -227 53t-227 -53zM1247 788l228 -227q27 53 41 109.5t14 117.5t-14.5 119t-40.5 111z" />
<glyph unicode="&#xd9;" d="M344 647v932h318l724 -727v727h316v-932q0 -143 -53 -264q-51 -123 -146 -215q-94 -96 -215 -145q-121 -54 -264 -54t-264 54q-121 49 -215 145q-47 47 -84 101.5t-64 113.5q-53 129 -53 264zM629 2052h315l238 -315h-316zM662 647q0 -76 28.5 -141.5t77.5 -114.5 t114.5 -77.5t141.5 -28.5q96 0 176 45t129 121l-667 667v-471z" />
<glyph unicode="&#xda;" d="M344 647v932h318l724 -727v727h316v-932q0 -143 -53 -264q-51 -123 -146 -215q-94 -96 -215 -145q-121 -54 -264 -54t-264 54q-121 49 -215 145q-47 47 -84 101.5t-64 113.5q-53 129 -53 264zM662 647q0 -76 28.5 -141.5t77.5 -114.5t114.5 -77.5t141.5 -28.5 q96 0 176 45t129 121l-667 667v-471zM866 1737l236 315h317l-237 -315h-316z" />
<glyph unicode="&#xdb;" d="M344 647v932h318l724 -727v727h316v-932q0 -143 -53 -264q-51 -123 -146 -215q-94 -96 -215 -145q-121 -54 -264 -54t-264 54q-121 49 -215 145q-47 47 -84 101.5t-64 113.5q-53 129 -53 264zM565 1737l238 315h442l238 -315h-318l-141 190l-141 -190h-318zM662 647 q0 -76 28.5 -141.5t77.5 -114.5t114.5 -77.5t141.5 -28.5q96 0 176 45t129 121l-667 667v-471z" />
<glyph unicode="&#xdc;" d="M344 647v932h318l724 -727v727h316v-932q0 -143 -53 -264q-51 -123 -146 -215q-94 -96 -215 -145q-121 -54 -264 -54t-264 54q-121 49 -215 145q-47 47 -84 101.5t-64 113.5q-53 129 -53 264zM629 1737v315h315v-315h-315zM662 647q0 -76 28.5 -141.5t77.5 -114.5 t114.5 -77.5t141.5 -28.5q96 0 176 45t129 121l-667 667v-471zM1104 1737v315h315v-315h-315z" />
<glyph unicode="&#xdd;" d="M244 1579h1558l-620 -932v-647h-316v647zM836 1264l188 -285l188 285h-376zM860 1737l238 315h315l-237 -315h-316z" />
<glyph unicode="&#xde;" d="M393 0v315h158v949h-158v315h473v-315h316q96 0 182 -36t154 -104q66 -68 101.5 -153.5t35.5 -182.5q0 -94 -36 -180t-101 -153q-68 -68 -154 -104t-182 -36h-316v-315h-473zM866 631h316q66 0 111.5 46t45.5 111q0 66 -46 113t-111 47h-316v-317z" />
<glyph unicode="&#xe0;" d="M197 0h344l483 1130l483 -1130h342l-673 1579h-304zM629 2052h315l238 -315h-316z" />
<glyph unicode="&#xe1;" d="M197 0l675 1579h304l673 -1579h-342l-483 1130l-483 -1130h-344zM866 1737l238 315h315l-237 -315h-316z" />
<glyph unicode="&#xe2;" d="M197 0l675 1579h304l673 -1579h-342l-483 1130l-483 -1130h-344zM565 1737l238 315h442l238 -315h-318l-141 190l-141 -190h-318z" />
<glyph unicode="&#xe3;" d="M197 0h344l483 1130l483 -1130h342l-673 1579h-304zM551 1737q0 49 18.5 92t51 75.5t74.5 51t91 18.5h476q33 0 55 22.5t22 55.5h158q0 -49 -18.5 -91t-51 -75t-74.5 -51t-91 -18h-476q-33 0 -55 -23.5t-22 -56.5h-158z" />
<glyph unicode="&#xe4;" d="M197 0h344l483 1130l483 -1130h342l-673 1579h-304zM629 1737v315h315v-315h-315zM1104 1737v315h315v-315h-315z" />
<glyph unicode="&#xe5;" d="M197 0l634 1485q-55 45 -88.5 109.5t-33.5 142.5q0 66 24.5 123t67.5 100t100 67.5t123 24.5t123 -24.5t100 -67.5t67.5 -100.5t24.5 -122.5q0 -78 -33.5 -142.5t-91.5 -109.5l635 -1485h-342l-483 1130l-483 -1130h-344zM866 1737q0 -66 46 -112t112 -46t112 46t46 112 t-46 111.5t-112 45.5t-112 -46t-46 -111z" />
<glyph unicode="&#xe6;" horiz-adv-x="2052" d="M-35 0l676 1579h1442v-315h-854v-111h790v-315h-790v-97h790v-315h-790v-111h854v-315h-1170v846l-120 284l-484 -1130h-344z" />
<glyph unicode="&#xe7;" d="M272 788q0 160 60 310q33 78 78 145.5t104 126.5q121 121 270 180q150 59 310 60q160 0 309 -60q78 -31 145.5 -75.5t126.5 -104.5l-225 -223q-59 59 -131 94t-148.5 47t-155.5 0t-149 -47l678 -680l232 -229q-23 -35 -47.5 -64.5t-53.5 -58.5q-55 -55 -123 -100 q-72 -49 -149 -80q-55 -23 -112.5 -37.5t-116.5 -20.5v-51h38q82 0 139.5 -57.5t57.5 -138.5q0 -82 -57.5 -139.5t-139.5 -57.5h-198v158h198q16 0 27.5 11t11.5 28q0 16 -11 27t-28 11h-198v209q-59 6 -116.5 20.5t-113.5 37.5q-150 59 -270 180q-59 59 -104 126.5 t-78 145.5q-59 150 -60 307zM588 788q0 -100 39 -192t110 -164q72 -72 163.5 -109.5t193.5 -37.5q121 0 227 53l-678 680q-55 -104 -55 -230z" />
<glyph unicode="&#xe8;" d="M440 0h1168v315h-852v111h788v315h-788v97h788v315h-788v111h852v315h-1168v-1579zM629 2052h315l238 -315h-316z" />
<glyph unicode="&#xe9;" d="M440 0h1168v315h-852v111h788v315h-788v97h788v315h-788v111h852v315h-1168v-1579zM866 1737l238 315h315l-237 -315h-316z" />
<glyph unicode="&#xea;" d="M440 0v1579h1168v-315h-852v-111h788v-315h-788v-97h788v-315h-788v-111h852v-315h-1168zM565 1737l238 315h442l238 -315h-318l-141 190l-141 -190h-318z" />
<glyph unicode="&#xeb;" d="M440 0h1168v315h-852v111h788v315h-788v97h788v315h-788v111h852v315h-1168v-1579zM629 1737v315h315v-315h-315zM1104 1737v315h315v-315h-315z" />
<glyph unicode="&#xec;" d="M668 2052h317l236 -315h-316zM748 0h630v315h-157v949h157v315h-630v-315h157v-949h-157v-315z" />
<glyph unicode="&#xed;" d="M668 0h632v315h-157v949h157v315h-632v-315h159v-949h-159v-315zM827 1737l236 315h315l-235 -315h-316z" />
<glyph unicode="&#xee;" d="M565 1737l238 315h442l238 -315h-318l-141 190l-141 -190h-318zM709 0v315h157v949h-157v315h630v-315h-157v-949h157v-315h-630z" />
<glyph unicode="&#xef;" d="M629 1737v315h315v-315h-315zM709 0h630v315h-157v949h157v315h-630v-315h157v-949h-157v-315zM1104 1737v315h315v-315h-315z" />
<glyph unicode="&#xf0;" d="M158 631v317h157v631h648q162 0 307 -61q139 -61 252 -170q109 -109 168 -250q63 -145 63 -310q0 -162 -63 -307q-57 -139 -168 -250q-106 -106 -252 -170q-145 -61 -307 -61h-648v473h316v-158h332q78 0 148.5 23.5t128.5 65.5t101 100.5t68 126.5h-588h-663zM631 948 h190h588q-25 68 -68 126.5t-101 100.5t-129 65.5t-148 23.5h-332v-316z" />
<glyph unicode="&#xf1;" d="M330 0v1579h315l758 -1042v1042h315v-1579h-1388zM551 1737q0 49 18.5 92t51 75.5t74.5 51t91 18.5h476q33 0 55 22.5t22 55.5h158q0 -49 -18.5 -91t-51 -75t-74.5 -51t-91 -18h-476q-33 0 -55 -23.5t-22 -56.5h-158zM645 315h526l-526 727v-727z" />
<glyph unicode="&#xf2;" d="M203 788q0 166 65 322q61 143 174 260q115 115 263 176q76 33 155.5 48.5t163.5 15.5t164 -15.5t155 -48.5q150 -61 261 -176q115 -115 176 -260q66 -156 65 -322q0 -164 -65 -319q-61 -145 -176 -260q-111 -115 -261 -176q-76 -33 -155.5 -48.5t-163.5 -15.5t-164 15.5 t-155 48.5q-147 61 -263 176q-113 117 -174 260q-66 156 -65 319zM518 788q0 -104 40 -196t108.5 -159.5t161 -107.5t196.5 -40t196.5 40t161 107.5t108.5 159.5t40 196t-40 196.5t-108.5 161t-161 108.5t-196.5 40t-196.5 -40t-161 -108.5t-108.5 -160.5t-40 -197z M629 2052h315l238 -315h-316z" />
<glyph unicode="&#xf3;" d="M203 788q0 166 65 322q61 143 174 260q115 115 263 176q76 33 155.5 48.5t163.5 15.5t164 -15.5t155 -48.5q150 -61 261 -176q115 -115 176 -260q66 -156 65 -322q0 -164 -65 -319q-61 -145 -176 -260q-111 -115 -261 -176q-76 -33 -155.5 -48.5t-163.5 -15.5t-164 15.5 t-155 48.5q-147 61 -263 176q-113 117 -174 260q-66 156 -65 319zM518 788q0 -104 40 -196t108.5 -159.5t161 -107.5t196.5 -40t196.5 40t161 107.5t108.5 159.5t40 196t-40 196.5t-108.5 161t-161 108.5t-196.5 40t-196.5 -40t-161 -108.5t-108.5 -160.5t-40 -197z M866 1737l238 315h315l-237 -315h-316z" />
<glyph unicode="&#xf4;" d="M203 788q0 166 65 322q61 143 174 260q115 115 263 176q76 33 155.5 48.5t163.5 15.5t164 -15.5t155 -48.5q150 -61 261 -176q115 -115 176 -260q66 -156 65 -322q0 -164 -65 -319q-61 -145 -176 -260q-111 -115 -261 -176q-76 -33 -155.5 -48.5t-163.5 -15.5t-164 15.5 t-155 48.5q-147 61 -263 176q-113 117 -174 260q-66 156 -65 319zM518 788q0 -104 40 -196t108.5 -159.5t161 -107.5t196.5 -40t196.5 40t161 107.5t108.5 159.5t40 196t-40 196.5t-108.5 161t-161 108.5t-196.5 40t-196.5 -40t-161 -108.5t-108.5 -160.5t-40 -197z M565 1737l238 315h442l238 -315h-318l-141 190l-141 -190h-318z" />
<glyph unicode="&#xf5;" d="M203 788q0 166 65 322q61 143 174 260q115 115 263 176q76 33 155.5 48.5t163.5 15.5t164 -15.5t155 -48.5q150 -61 261 -176q115 -115 176 -260q66 -156 65 -322q0 -164 -65 -319q-61 -145 -176 -260q-111 -115 -261 -176q-76 -33 -155.5 -48.5t-163.5 -15.5t-164 15.5 t-155 48.5q-147 61 -263 176q-113 117 -174 260q-66 156 -65 319zM518 788q0 -104 40 -196t108.5 -159.5t161 -107.5t196.5 -40t196.5 40t161 107.5t108.5 159.5t40 196t-40 196.5t-108.5 161t-161 108.5t-196.5 40t-196.5 -40t-161 -108.5t-108.5 -160.5t-40 -197z M551 1737q0 49 18.5 92t51 75.5t74.5 51t91 18.5h476q33 0 55 22.5t22 55.5h158q0 -49 -18.5 -91t-51 -75t-74.5 -51t-91 -18h-476q-33 0 -55 -23.5t-22 -56.5h-158z" />
<glyph unicode="&#xf6;" d="M203 788q0 166 65 322q61 143 174 260q115 115 263 176q76 33 155.5 48.5t163.5 15.5t164 -15.5t155 -48.5q150 -61 261 -176q115 -115 176 -260q66 -156 65 -322q0 -164 -65 -319q-61 -145 -176 -260q-111 -115 -261 -176q-76 -33 -155.5 -48.5t-163.5 -15.5t-164 15.5 t-155 48.5q-147 61 -263 176q-113 117 -174 260q-66 156 -65 319zM518 788q0 -104 40 -196t108.5 -159.5t161 -107.5t196.5 -40t196.5 40t161 107.5t108.5 159.5t40 196t-40 196.5t-108.5 161t-161 108.5t-196.5 40t-196.5 -40t-161 -108.5t-108.5 -160.5t-40 -197z M629 1737v315h315v-315h-315zM1104 1737v315h315v-315h-315z" />
<glyph unicode="&#xf8;" d="M10 0l332 332q-41 61 -74 137q-66 156 -65 319q0 166 65 322q61 143 174 260q115 115 263 176q76 33 155.5 48.5t163.5 15.5t164 -15.5t155 -48.5q72 -31 140 -76l106 109h447l-330 -332q41 -61 74 -137q66 -156 65 -322q0 -164 -65 -319q-61 -145 -176 -260 q-111 -115 -261 -176q-76 -33 -155.5 -48.5t-163.5 -15.5t-164 15.5t-155 48.5q-37 16 -72 34.5t-68 41.5l-108 -109h-447zM518 788q0 -61 14.5 -117.5t40.5 -109.5l678 680q-102 53 -227 53q-104 0 -196.5 -40t-161 -108.5t-108.5 -161t-40 -196.5zM797 338 q102 -53 227 -53q104 0 196.5 40t161 107.5t108.5 159.5t40 196q0 61 -14.5 119t-40.5 111z" />
<glyph unicode="&#xf9;" d="M344 647v932h522v-315h-204v-617q0 -76 28.5 -141.5t77.5 -114.5t114.5 -77.5t141.5 -28.5t141.5 28.5t114.5 77.5t77.5 114.5t28.5 141.5v617h-204v315h520v-932q0 -143 -53 -264q-51 -123 -146 -215q-94 -96 -215 -145q-121 -54 -264 -54t-264 54q-121 49 -215 145 q-47 47 -84 101.5t-64 113.5q-53 129 -53 264zM629 2052h315l238 -315h-316z" />
<glyph unicode="&#xfa;" d="M344 647v932h522v-315h-204v-617q0 -76 28.5 -141.5t77.5 -114.5t114.5 -77.5t141.5 -28.5t141.5 28.5t114.5 77.5t77.5 114.5t28.5 141.5v617h-204v315h520v-932q0 -143 -53 -264q-51 -123 -146 -215q-94 -96 -215 -145q-121 -54 -264 -54t-264 54q-121 49 -215 145 q-47 47 -84 101.5t-64 113.5q-53 129 -53 264zM866 1737l236 315h317l-237 -315h-316z" />
<glyph unicode="&#xfb;" d="M344 647v932h522v-315h-204v-617q0 -76 28.5 -141.5t77.5 -114.5t114.5 -77.5t141.5 -28.5t141.5 28.5t114.5 77.5t77.5 114.5t28.5 141.5v617h-204v315h520v-932q0 -143 -53 -264q-51 -123 -146 -215q-94 -96 -215 -145q-121 -54 -264 -54t-264 54q-121 49 -215 145 q-47 47 -84 101.5t-64 113.5q-53 129 -53 264zM565 1737l238 315h442l238 -315h-318l-141 190l-141 -190h-318z" />
<glyph unicode="&#xfc;" d="M344 647v932h522v-315h-204v-617q0 -76 28.5 -141.5t77.5 -114.5t114.5 -77.5t141.5 -28.5t141.5 28.5t114.5 77.5t77.5 114.5t28.5 141.5v617h-204v315h520v-932q0 -143 -53 -264q-51 -123 -146 -215q-94 -96 -215 -145q-121 -54 -264 -54t-264 54q-121 49 -215 145 q-47 47 -84 101.5t-64 113.5q-53 129 -53 264zM629 1737v315h315v-315h-315zM1102 1737v315h317v-315h-317z" />
<glyph unicode="&#xfd;" d="M244 1579h381l399 -600l399 600h379l-1052 -1579h-379l463 694zM860 1737l238 315h315l-237 -315h-316z" />
<glyph unicode="&#xff;" d="M244 1579l590 -885l-463 -694h379l1052 1579h-379l-399 -600l-399 600h-381zM629 1737v315h315v-315h-315zM1104 1737v315h315v-315h-315z" />
<glyph unicode="&#x152;" d="M-35 788q0 166 66 322q61 145 176 260q117 117 260 176q152 63 319 64q117 0 228 -31h1028v-315h-791l207 -316h520v-317h-311l416 -631h-1069q-111 -31 -228 -31q-168 0 -319 64q-143 59 -260 176q-115 115 -176 260q-66 156 -66 319zM283 788q0 -104 39.5 -196 t107.5 -159.5t160 -107.5t196 -40q45 0 86 6v188l-536 539q-53 -107 -53 -230zM559 1241l313 -315v22h209l-209 316v24q-41 6 -86 6q-121 0 -227 -53zM1190 315h307l-209 316h-98v-316z" />
<glyph unicode="&#x153;" d="M-35 791q0 166 66 319q61 147 176 262q111 111 260 176q152 63 319 64q117 0 228 -31h1069v-315h-854v-111h790v-317h-790v-95h790v-315h-790v-111h854v-315h-1069q-55 -16 -111.5 -24.5t-116.5 -8.5q-164 0 -319 66q-143 59 -260 176t-176 260q-66 156 -66 320zM283 791 q0 -104 39.5 -196.5t107.5 -160t160 -107.5t196 -40q70 0 127 14v979q-31 8 -61.5 12t-65.5 4q-104 0 -196 -39.5t-160 -108.5t-107.5 -161t-39.5 -196z" />
<glyph unicode="&#x178;" d="M244 1579l622 -932v-647h316v647l620 932h-1558zM629 1737v315h315v-315h-315zM836 1264h376l-188 -285zM1104 1737v315h315v-315h-315z" />
<glyph unicode="&#x2000;" horiz-adv-x="1026" />
<glyph unicode="&#x2001;" horiz-adv-x="2052" />
<glyph unicode="&#x2002;" horiz-adv-x="1026" />
<glyph unicode="&#x2003;" horiz-adv-x="2052" />
<glyph unicode="&#x2004;" horiz-adv-x="684" />
<glyph unicode="&#x2005;" horiz-adv-x="513" />
<glyph unicode="&#x2006;" horiz-adv-x="342" />
<glyph unicode="&#x2007;" horiz-adv-x="342" />
<glyph unicode="&#x2008;" horiz-adv-x="256" />
<glyph unicode="&#x2009;" horiz-adv-x="410" />
<glyph unicode="&#x200a;" horiz-adv-x="114" />
<glyph unicode="&#x2010;" d="M629 631v317h790v-317h-790z" />
<glyph unicode="&#x2011;" d="M629 631v317h790v-317h-790z" />
<glyph unicode="&#x2012;" d="M629 631v317h790v-317h-790z" />
<glyph unicode="&#x2013;" d="M471 631v317h1106v-317h-1106z" />
<glyph unicode="&#x2014;" d="M313 631v317h1422v-317h-1422z" />
<glyph unicode="&#x202f;" horiz-adv-x="410" />
<glyph unicode="&#x205f;" horiz-adv-x="513" />
<glyph unicode="&#x25fc;" horiz-adv-x="1576" d="M0 0v1577h1577v-1577h-1577z" />
</font>
</defs>
</svg>
