<?xml version="1.0" standalone="no"?>
<!DOCTYPE svg PUBLIC "-//W3C//DTD SVG 1.1//EN" "http://www.w3.org/Graphics/SVG/1.1/DTD/svg11.dtd" >
<svg xmlns="http://www.w3.org/2000/svg" xmlns:xlink="http://www.w3.org/1999/xlink" version="1.1">
<metadata></metadata>
<defs>
<font id="exo_2extra_light_italic" horiz-adv-x="1144" >
<font-face units-per-em="2048" ascent="1638" descent="-410" />
<missing-glyph horiz-adv-x="466" />
<glyph horiz-adv-x="0" />
<glyph unicode="&#xd;" horiz-adv-x="681" />
<glyph unicode=" "  horiz-adv-x="466" />
<glyph unicode="&#x09;" horiz-adv-x="466" />
<glyph unicode="&#xa0;" horiz-adv-x="466" />
<glyph unicode="!" horiz-adv-x="526" d="M135 37l19 123q6 33 39 33h28q35 0 29 -37l-17 -123q-6 -33 -36 -33h-29q-37 0 -33 37zM205 420l37 323l96 680h82l-96 -680l-52 -323h-67z" />
<glyph unicode="&#x22;" horiz-adv-x="673" d="M223 983l56 430h73l-67 -430h-62zM494 983l53 430h74l-66 -430h-61z" />
<glyph unicode="#" horiz-adv-x="1366" d="M90 459l21 63h239l135 428h-239l20 64h238l127 399h69l-125 -399h443l127 399h69l-124 -399h225l-21 -64h-225l-135 -428h225l-18 -63h-226l-145 -459h-70l144 459h-443l-145 -459h-70l144 459h-240zM420 522h444l135 428h-444z" />
<glyph unicode="$" horiz-adv-x="1153" d="M80 4l10 64q207 -14 350 -15l125 627l-135 55q-147 61 -196.5 145.5t-30.5 229.5q12 90 42.5 152.5t68.5 96.5t101.5 52.5t122 22.5t146.5 2h35l41 209h55l-41 -211q164 -7 301 -27l-12 -61q-190 12 -305 12l-121 -617l119 -49q158 -66 207 -145.5t28 -235.5 q-14 -88 -43.5 -149.5t-68.5 -98t-104.5 -55t-130 -25t-165.5 -6.5l-49 -249h-55l51 249q-195 4 -346 27zM289 1098q-12 -115 20.5 -175.5t145.5 -107.5l131 -53l119 598h-50q-59 0 -91 -2t-79 -9.5t-72.5 -23.5t-54 -44t-45 -74t-24.5 -109zM496 53h4q104 2 165.5 11.5 t116 36t82 79.5t41.5 142q16 125 -18.5 182t-155.5 108l-115 47z" />
<glyph unicode="%" horiz-adv-x="1806" d="M172 1024q31 221 112 317.5t253 96.5q174 0 232 -99.5t28 -322.5q-31 -221 -114 -317.5t-251 -96.5q-174 0 -232.5 100.5t-27.5 321.5zM240 1016q-27 -193 14 -275t172 -82q143 0 209.5 84t93.5 281q25 197 -14 276.5t-174 79.5q-145 0 -209 -83t-92 -281zM297 0 l1163 1413h72l-1163 -1413h-72zM1042 408q31 221 112 317t253 96q174 0 232.5 -100t25.5 -324q-31 -219 -114 -316t-251 -97q-174 0 -231 100t-27 324zM1110 397q-27 -193 13 -274.5t173 -81.5q143 0 210 85t91 282q27 197 -12 276.5t-174 79.5q-147 0 -210.5 -83 t-90.5 -284z" />
<glyph unicode="&#x26;" horiz-adv-x="1601" d="M109 362q29 182 126 272.5t273 94.5v8q-150 10 -201 94t-24 240q37 213 150.5 287t357.5 74q176 0 325 -48l-14 -61q-145 35 -314 35q-211 0 -301 -58.5t-120 -238.5q-31 -172 43.5 -233.5t283.5 -61.5h465q16 139 12 301h78q2 -150 -14 -301h287l-17 -68h-278 q-37 -229 -137 -395q-104 -174 -250 -247.5t-348 -78.5q-236 -6 -327 79t-56 306zM197 360q-33 -184 35.5 -245.5t228.5 -61.5q203 0 336 67.5t225 219.5q92 149 127 358h-461q-123 -2 -198.5 -14t-139 -47t-98.5 -101.5t-55 -175.5z" />
<glyph unicode="'" horiz-adv-x="403" d="M223 983l56 430h73l-67 -430h-62z" />
<glyph unicode="(" horiz-adv-x="722" d="M137 651q53 381 208 617.5t425 349.5l12 -49q-238 -113 -374 -339t-187 -593q-51 -358 20.5 -582.5t274.5 -343.5l-14 -49q-473 225 -365 989z" />
<glyph unicode=")" horiz-adv-x="722" d="M-47 -289q236 119 373 347.5t188 586.5q51 356 -19.5 584.5t-275.5 339.5l12 49q240 -111 331 -352.5t36 -638.5q-53 -383 -206.5 -616.5t-428.5 -348.5z" />
<glyph unicode="*" horiz-adv-x="919" d="M207 1157l24 60l244 -91l-6 -26l-14 -19zM270 838l234 258l37 317h61l-55 -319l162 -265l-54 -32l-133 254l-205 -252zM584 1100l2 26l262 88l14 -61l-268 -72z" />
<glyph unicode="+" horiz-adv-x="1126" d="M125 575l12 68h398l53 377h69l-55 -377h399l-10 -68h-397l-55 -376h-66l51 376h-399z" />
<glyph unicode="," horiz-adv-x="432" d="M55 -231q37 123 56 233q-27 0 -23 31l18 127q4 18 12.5 25.5t28.5 7.5h33q29 0 27 -33l-21 -135q-14 -117 -86 -271z" />
<glyph unicode="-" horiz-adv-x="966" d="M152 481l8 68h633l-9 -68h-632z" />
<glyph unicode="." horiz-adv-x="430" d="M88 37l18 123q2 33 37 33h31q37 0 31 -37l-17 -123q-6 -33 -38 -33h-29q-39 0 -33 37z" />
<glyph unicode="/" horiz-adv-x="1032" d="M-27 -125l1018 1538h80l-1018 -1538h-80z" />
<glyph unicode="0" horiz-adv-x="1202" d="M166 711q53 385 177 556t372 171q250 0 328.5 -175.5t23.5 -560.5q-53 -385 -177 -556t-370 -171q-250 0 -329.5 175.5t-24.5 560.5zM248 702q-47 -348 11 -499.5t259 -151.5q207 0 312.5 154.5t154.5 505.5q49 348 -10 499.5t-260 151.5q-209 0 -312.5 -153.5 t-154.5 -506.5z" />
<glyph unicode="1" horiz-adv-x="776" d="M156 1266l399 147h84l-199 -1413h-84l174 1231q4 33 21 102l-391 -127z" />
<glyph unicode="2" horiz-adv-x="1126" d="M35 0l6 53q8 29 18 39l547 541q168 166 249 288.5t93 243.5q12 125 -57.5 161t-233.5 36q-190 0 -409 -43l-10 63q236 55 413 56q217 0 311.5 -59.5t71.5 -233.5q-18 -135 -97 -255t-251 -290l-530 -524q78 2 233 2h555l-10 -78h-899z" />
<glyph unicode="3" horiz-adv-x="1118" d="M39 10l16 64q195 -33 375 -23q381 25 434 352q49 309 -286 310l-267 2l8 63l263 4q303 6 342 322q18 152 -45.5 205t-264.5 53q-176 0 -352 -23l-10 64q209 35 373 35q236 0 320.5 -74t60.5 -256q-41 -313 -267 -354l-2 -9q131 -20 181.5 -117.5t27.5 -238.5 q-27 -172 -148.5 -286.5t-357.5 -127.5q-199 -10 -401 35z" />
<glyph unicode="4" horiz-adv-x="1218" d="M92 445.5q-29 58.5 14 121.5l556 846h92l-566 -860q-25 -39 -13.5 -66.5t52.5 -27.5h617l63 448l51 238h64l-96 -686h172l-11 -62l-172 -8l-55 -389h-82l56 387h-639q-74 0 -103 58.5z" />
<glyph unicode="5" horiz-adv-x="1079" d="M51 31l17 65q170 -53 331 -47q221 10 322.5 118.5t120.5 258.5q12 92 -2.5 152.5t-48 97.5t-110.5 56.5t-159 24.5t-221 7l-55 2q-18 2 -29.5 15.5t-7.5 31.5l113 600h700l-12 -74h-627l-94 -501l121 -2q152 -2 246 -19.5t165.5 -61.5t95 -127t7.5 -212 q-6 -57 -22.5 -108.5t-53.5 -113t-90 -105.5t-142.5 -76.5t-201.5 -37.5q-180 -6 -363 56z" />
<glyph unicode="6" horiz-adv-x="1155" d="M141 293q-6 160 29 401q35 240 86 388.5t132 226t171 103.5t231.5 26t258.5 -27l-19 -61q-92 14 -235 14q-127 0 -206 -23.5t-147.5 -95t-111.5 -206t-76 -353.5q162 211 426 221q209 10 285.5 -98.5t40.5 -366.5q-31 -229 -143.5 -348t-334.5 -119q-199 0 -290 79 t-97 239zM221 288.5q8 -122.5 80 -181t229 -58.5q180 0 273.5 103.5t120.5 302.5q31 211 -23.5 301t-232.5 82q-119 -6 -214.5 -55.5t-211.5 -178.5q-29 -193 -21 -315.5z" />
<glyph unicode="7" horiz-adv-x="1028" d="M190 1339l5 74h778q104 0 57 -96l-637 -1317h-88l608 1257q23 45 48 82h-771z" />
<glyph unicode="8" horiz-adv-x="1249" d="M131 356q25 182 89.5 271.5t193.5 103.5l4 8q-201 25 -158 326q29 199 130.5 283t344.5 84q252 0 331 -87.5t52 -287.5q-20 -152 -78.5 -229.5t-167.5 -90.5l-4 -8q125 -14 165 -106.5t16 -274.5q-29 -205 -132.5 -284.5t-371.5 -81.5q-264 -2 -353.5 84t-60.5 290z M213 356q-25 -170 44 -234.5t290 -64.5q225 0 311 68t111 242q31 213 -32 272t-294 59q-238 -2 -318.5 -63.5t-111.5 -278.5zM340 1053q-27 -180 32.5 -232.5t276.5 -52.5t290 55.5t99 237.5q25 172 -34.5 234.5t-270.5 62.5q-209 0 -288.5 -65.5t-104.5 -239.5z" />
<glyph unicode="9" horiz-adv-x="1157" d="M111 2l20 61q104 -14 246 -14q186 2 284.5 52.5t162 192.5t110.5 433l2 4q-94 -119 -193.5 -170t-230.5 -55q-213 -8 -289 105.5t-39 359.5q33 236 145.5 351.5t344.5 115.5q270 0 338.5 -164t5.5 -555q-31 -193 -70 -322t-86 -214t-117.5 -130t-150.5 -61.5t-199 -16.5 q-159 0 -284 27zM264 958q-31 -217 30.5 -303t227.5 -80q121 4 216.5 56.5t209.5 179.5q43 299 -12 426t-266 127q-195 0 -284 -98.5t-122 -307.5z" />
<glyph unicode=":" horiz-adv-x="436" d="M137 37l19 123q2 33 37 33h30q37 0 31 -37l-16 -123q-6 -33 -39 -33h-29q-39 0 -33 37zM236 731l18 121q4 35 37 35h33q35 0 28 -39l-16 -123q-6 -33 -37 -33h-31q-39 0 -32 39z" />
<glyph unicode=";" horiz-adv-x="440" d="M59 -231q31 102 56 233q-29 0 -23 31l19 127q4 18 11 25.5t30 7.5h30q33 0 27 -33l-19 -135q-16 -113 -86 -271zM188 731l19 121q4 35 37 35h32q35 0 31 -39l-18 -123q-2 -33 -37 -33h-31q-37 0 -33 39z" />
<glyph unicode="&#x3c;" horiz-adv-x="1095" d="M119 571l10 70l864 369l-10 -74l-782 -332l688 -323l-8 -70z" />
<glyph unicode="=" horiz-adv-x="1208" d="M135 344l10 68h865l-9 -68h-866zM195 778l10 68h864l-8 -68h-866z" />
<glyph unicode="&#x3e;" horiz-adv-x="1091" d="M102 211l9 76l782 323l-688 332l10 68l760 -369l-10 -70z" />
<glyph unicode="?" horiz-adv-x="1019" d="M195 1419q12 2 61 10.5t61.5 10.5t55.5 7t70.5 6t75.5 3t104 2q201 0 294 -80t70 -241q-10 -72 -47 -136.5t-86 -108.5t-105.5 -96.5t-106.5 -100.5t-89 -120.5t-51 -156.5l-74 4q14 106 64.5 193t114 146.5t127 114t111.5 121t58 142.5q16 131 -52.5 189t-236.5 58 q-184 1 -411 -26zM362 37l17 123q6 33 39 33h26q35 0 33 -37l-18 -121q-4 -35 -37 -35h-29q-37 0 -31 37z" />
<glyph unicode="@" horiz-adv-x="1529" d="M118 276.5q1 77.5 19 182.5q49 272 149.5 361t356.5 89q141 0 363 -30l-103 -695q-10 -72 11.5 -103.5t80.5 -31.5q129 0 178.5 107.5t100.5 472.5q14 109 22.5 181.5t5 138t-9.5 102t-32.5 68.5t-54 45.5t-85 22.5t-111 11t-147.5 2h-610l6 60q240 8 604 12 q102 0 170 -4t129.5 -17.5t97 -32t64.5 -55.5t40 -81t13 -115.5t-5 -151.5t-21 -194q-53 -387 -119 -515.5t-242 -128.5q-199 0 -164 224l4 28q-221 -254 -464 -254q-94 0 -152.5 39t-77 112t-17.5 150.5zM197 239q-2 -89 42 -140.5t138 -51.5q227 0 465 270l73 510 q-152 10 -249 11q-240 0 -323 -73t-126 -316q-18 -121 -20 -210z" />
<glyph unicode="A" horiz-adv-x="1236" d="M-49 0l690 1389q8 25 37 24h115q31 0 34 -29l299 -1384h-86l-102 496h-651l-244 -496h-92zM322 571h600l-138 658q-2 14 -10 53t-12 61h-62l-55 -116z" />
<glyph unicode="B" horiz-adv-x="1253" d="M119 0l198 1413q150 16 412 17q256 0 348 -79q69 -60 70 -196q0 -45 -8 -98q-23 -154 -89.5 -230.5t-195.5 -89.5v-8q150 -13 202 -109q34 -63 34 -161q0 -51 -9 -111q-31 -215 -135 -289.5t-348 -74.5q-311 0 -479 16zM211 61q160 -4 379 -4q207 0 295 62.5t112 245.5 q7 53 7 97q0 115 -50 164q-70 68 -284 72h-371zM309 766h365q190 2 273 62.5t108 232.5q7 46 7 84q0 107 -53 151q-71 60 -282 60l-336 -2z" />
<glyph unicode="C" d="M162 711q57 403 196.5 565t429.5 162q215 0 363 -37l-18 -62q-158 23 -342 23q-256 0 -373 -143.5t-170 -516.5q-21 -147 -20 -258q0 -164 44 -250q76 -143 322 -143q225 0 385 27l10 -64q-168 -39 -393 -39q-296 0 -394 167q-62 105 -61 303q0 117 21 266z" />
<glyph unicode="D" horiz-adv-x="1349" d="M119 0l198 1413q248 18 467 19q294 0 392 -163q62 -104 63 -307q0 -114 -20 -260q-57 -414 -195.5 -567t-435.5 -153q-219 0 -469 18zM211 63q172 -6 375 -6q256 0 374.5 139.5t172.5 514.5q20 146 20 256q0 166 -46 250q-77 139 -325 139q-213 0 -389 -6z" />
<glyph unicode="E" horiz-adv-x="1128" d="M137 229l135 969q14 98 80 156.5t170 58.5q408 0 606 -8l-12 -64h-579q-160 0 -183 -163l-55 -390h657l-10 -67h-655l-68 -492q-2 -16 -2 -30q0 -51 28 -85q36 -42 107 -42h582v-64q-197 -8 -596 -8q-106 0 -164 64q-45 50 -44 122q0 21 3 43z" />
<glyph unicode="F" horiz-adv-x="1089" d="M113 0l168 1196q16 102 82.5 159.5t166.5 57.5q397 0 590 -10l-12 -62h-559q-162 0 -187 -163l-57 -402h641l-10 -67h-639l-100 -709h-84z" />
<glyph unicode="G" horiz-adv-x="1271" d="M160 711q55 408 199.5 567.5t439.5 159.5q233 0 401 -37l-18 -62q-174 23 -377 23q-268 0 -387 -141.5t-170 -518.5q-18 -145 -18 -255q0 -161 38 -249q66 -147 273 -147q119 0 221 61.5t229 178.5l74 528h82l-117 -819h-59l16 213q-221 -238 -463 -238q-244 0 -328 172 q-53 110 -53 310q0 113 17 254z" />
<glyph unicode="H" horiz-adv-x="1349" d="M119 0l198 1413h84l-86 -620h777l88 620h84l-199 -1413h-84l100 719h-778l-100 -719h-84z" />
<glyph unicode="I" horiz-adv-x="489" d="M119 0l198 1413h84l-198 -1413h-84z" />
<glyph unicode="J" horiz-adv-x="667" d="M-10 2l18 57h111q195 0 223 195l162 1159h84l-164 -1163q-34 -264 -280 -264h-7q-70 0 -147 16z" />
<glyph unicode="K" horiz-adv-x="1163" d="M119 0l198 1413h82l-65 -475q-16 -102 -31 -166h213l569 641h105l-533 -602q-38 -43 -75 -72v-6q14 -16 47 -67l395 -666h-96l-418 702h-217q-2 -86 -19 -172l-73 -530h-82z" />
<glyph unicode="L" horiz-adv-x="1030" d="M145 231l166 1182h84l-166 -1184q-2 -16 -2 -30q0 -51 28 -85q36 -42 110 -42h546l-2 -64q-188 -8 -563 -8q-102 0 -158 64q-45 52 -46 128q0 19 3 39z" />
<glyph unicode="M" horiz-adv-x="1761" d="M88 0l254 1374q6 39 45 39h113q33 0 37 -33l221 -989q10 -37 23.5 -103.5t17.5 -88.5h51l94 198l496 989q14 27 41 27h116q39 0 39 -38v-7l-131 -1368h-86l131 1341h-47l-590 -1181q-10 -27 -41 -27h-106q-33 0 -39 31l-260 1177h-49l-246 -1341h-84z" />
<glyph unicode="N" horiz-adv-x="1417" d="M119 0l192 1374q6 39 43 39h101q33 0 45 -35l442 -1126q31 -76 66 -176h53q23 176 24 182l160 1155h84l-192 -1374q-6 -39 -43 -39h-105q-33 0 -45 35l-452 1153q-51 133 -58 149h-47q-12 -106 -20 -168l-164 -1169h-84z" />
<glyph unicode="O" horiz-adv-x="1355" d="M162 711q57 403 195.5 565t433.5 162q293 0 391 -166q62 -105 62 -305q0 -116 -21 -265q-55 -406 -193.5 -566.5t-431.5 -160.5q-294 0 -394 165q-64 105 -63 306q0 116 21 265zM248 702q-19 -143 -19 -251q1 -170 47 -257q76 -143 322 -143q252 0 368.5 144.5 t170.5 515.5q22 152 22 265q0 162 -45 245q-76 141 -326 141q-254 0 -370.5 -144.5t-169.5 -515.5z" />
<glyph unicode="P" horiz-adv-x="1191" d="M119 0l198 1413q168 16 457 17q236 0 318 -92q58 -66 58 -208q0 -57 -9 -126q-37 -246 -138.5 -332t-334.5 -86q-221 0 -381 12l-84 -598h-84zM295 659h371q195 4 277.5 76t111.5 277q9 64 9 116q0 108 -42 156q-62 72 -248 72q-225 0 -381 -4z" />
<glyph unicode="Q" horiz-adv-x="1355" d="M162 711q57 403 195.5 565t433.5 162q293 0 391 -166q62 -105 62 -305q0 -116 -21 -265q-55 -406 -193.5 -566.5t-431.5 -160.5t-394 165q-63 105 -63 306q0 116 21 265zM248 702q-19 -143 -19 -251q0 -170 47 -257q76 -143 322 -143q252 0 368.5 144.5t170.5 515.5 q22 152 22 265q0 162 -45 245q-76 141 -326 141q-254 0 -370.5 -144.5t-169.5 -515.5zM469 -150l35 50q182 -125 459 -170l-31 -84q-283 46 -463 204z" />
<glyph unicode="R" horiz-adv-x="1247" d="M119 0l198 1413q168 16 457 17q230 0 316 -88q63 -64 63 -205q0 -51 -8 -113q-27 -180 -99.5 -264t-216.5 -103v-10q104 -33 136 -198l92 -449h-88l-90 449q-18 94 -64.5 134t-126.5 40q-72 2 -162 3t-145 2t-90 3l-90 -631h-82zM299 698h375q190 4 274 74t111 260 q8 57 8 103q1 106 -43 153q-62 68 -250 68q-223 0 -383 -4z" />
<glyph unicode="S" horiz-adv-x="1136" d="M70 4l12 64q224 -15 390 -15h20q102 2 163.5 11.5t115.5 36t83 79.5t43 142q5 40 5 72q0 71 -24 110q-34 57 -157 108l-299 123q-146 61 -196 145q-37 63 -37 160q0 33 4 70q16 111 55 180.5t108 99.5q70 32 138 40q55 7 141 6h41q217 -4 389 -29l-10 -61 q-242 14 -408 14q-72 0 -109.5 -2t-90 -15.5t-80 -40t-53 -77.5t-35.5 -127q-3 -30 -3 -57q0 -75 24 -119q34 -60 146 -107l299 -123q159 -66 209 -146q35 -57 35 -150q0 -39 -6 -85q-14 -88 -44 -149.5t-70 -98t-104.5 -55t-130 -25t-165.5 -6.5q-209 0 -399 27z" />
<glyph unicode="T" horiz-adv-x="1150" d="M152 1339l10 74h1057l-11 -74h-487l-189 -1339h-83l188 1339h-485z" />
<glyph unicode="U" horiz-adv-x="1363" d="M182 530l123 883h86l-125 -889q-12 -86 -12 -155q0 -143 51 -213q76 -106 297 -105q223 0 331.5 108.5t145.5 370.5l123 883h86l-125 -889q-43 -299 -169 -424t-390 -125q-268 0 -366 128q-69 90 -68 265q0 73 12 162z" />
<glyph unicode="V" horiz-adv-x="1212" d="M156 1413h86l231 -1194q12 -59 27 -151h55q8 23 20.5 49t26.5 58t23 50l565 1188h90l-666 -1388q-8 -25 -39 -25h-108q-31 0 -35 29z" />
<glyph unicode="W" horiz-adv-x="1904" d="M174 1413h86l133 -1196q4 -49 13 -151h57q6 16 17.5 47.5t20.5 57.5t17 48l447 1163q10 31 39 31h110q33 0 37 -35l123 -1163q0 -8 12 -149h57l56 153l467 1194h88l-547 -1386q-8 -27 -41 -27h-117q-31 0 -35 33l-118 1157q-2 27 -7.5 77t-9.5 76h-49l-61 -159 l-441 -1155q-10 -29 -41 -29h-116q-33 0 -37 31z" />
<glyph unicode="X" horiz-adv-x="1218" d="M-16 0l540 737l-313 676h88l295 -641h72l479 641h94l-504 -678l332 -735h-88l-313 702h-70l-512 -702h-100z" />
<glyph unicode="Y" horiz-adv-x="1112" d="M145 1413h86l258 -661q37 -96 54 -148h14q41 74 92 150l445 659h92l-602 -895l-74 -518h-86l76 520z" />
<glyph unicode="Z" horiz-adv-x="1136" d="M14 0l13 74l1007 1265h-823l10 74h922l-10 -74l-1010 -1265h844l-13 -74h-940z" />
<glyph unicode="[" horiz-adv-x="638" d="M86 -260l246 1759q14 74 84 74h266l-8 -64h-232q-31 0 -34 -28l-242 -1731q-2 -25 18 -24h240l-10 -64h-262q-33 0 -52.5 21.5t-13.5 56.5z" />
<glyph unicode="\" horiz-adv-x="1001" d="M176 1413h72l592 -1538h-72z" />
<glyph unicode="]" horiz-adv-x="638" d="M-39 -338l8 64h234q29 0 33 28l243 1731q4 25 -20 24h-238l8 64h263q33 0 52 -22.5t15 -55.5l-248 -1759q-4 -33 -26.5 -53.5t-55.5 -20.5h-268z" />
<glyph unicode="^" horiz-adv-x="821" d="M100 780l377 412h62l262 -414l-41 -26l-248 366h-16l-357 -366z" />
<glyph unicode="_" horiz-adv-x="1218" d="M84 -68l8 68h887l-10 -68h-885z" />
<glyph unicode="`" horiz-adv-x="587" d="M213 1401l53 59l287 -301l-39 -39z" />
<glyph unicode="a" horiz-adv-x="1159" d="M133 500q49 311 150.5 411.5t357.5 100.5q172 0 391 -31l-137 -981h-64l27 242q-111 -125 -244 -196t-243 -71q-179 0 -231 121q-27 65 -28 175q0 97 21 229zM208 149q34 -100 171 -100q102 0 230 70.5t249 199.5l84 609q-233 12 -285 12q-236 0 -317.5 -84t-124.5 -367 q-22 -131 -22 -221q0 -74 15 -119z" />
<glyph unicode="b" horiz-adv-x="1155" d="M98 41l197 1393h80l-60 -412q-24 -161 -49 -272q283 262 479 262q175 0 235 -116q35 -68 35 -196q0 -91 -18 -213q-29 -215 -85 -325.5t-142 -148.5t-242 -38q-188 0 -430 66zM186 84q164 -37 320 -37q217 0 294 87t113 364q17 122 17 207q0 92 -20 140q-38 93 -181 93 q-88 0 -196.5 -61.5t-262.5 -190.5z" />
<glyph unicode="c" horiz-adv-x="976" d="M117 498q39 283 157.5 398.5t364.5 115.5q170 0 285 -39l-17 -55q-92 20 -254 20q-217 0 -316 -95t-134 -354q-13 -89 -13 -158q0 -130 46 -190q70 -92 282 -92q174 0 291 23l8 -58q-152 -39 -311 -39q-252 0 -340 119q-61 82 -61 245q0 71 12 159z" />
<glyph unicode="d" horiz-adv-x="1157" d="M129 500q45 309 148.5 410.5t357.5 101.5q152 0 321 -23q2 78 19 191l37 254h82l-203 -1434h-64l25 244q-244 -268 -504 -269q-164 0 -211 125q-26 68 -26 181q0 94 18 219zM205 156q31 -106 160 -107q231 0 491 270l84 611q-199 10 -285 10q-238 0 -320.5 -84 t-123.5 -367q-20 -124 -20 -211q0 -73 14 -122z" />
<glyph unicode="e" horiz-adv-x="1083" d="M119 506q23 156 62.5 255t105 154.5t146.5 76t204 20.5q205 0 292 -69q60 -48 60 -143q0 -43 -12 -95q-27 -125 -101.5 -176.5t-238.5 -67.5l-447 -47q-4 -47 -5 -87q1 -143 57 -203q72 -77 266 -77q163 0 362 27l9 -58q-139 -41 -394 -41q-243 0 -325 122 q-54 81 -55 235q0 78 14 174zM199 479l440 49q127 14 180 51t78 132q8 51 11 88v10q0 31 -16 53q-18 26 -37 41t-56 23t-73 11t-85 3q-111 0 -177.5 -15.5t-120.5 -62.5t-86 -133t-54 -229z" />
<glyph unicode="f" horiz-adv-x="733" d="M-258 -416l8 62h160q111 0 162 47t67 168l150 1057h-180l8 59l180 8l29 203q18 139 88.5 207.5t210.5 68.5q162 0 254 -10l-11 -61h-217q-119 0 -174 -47.5t-69 -165.5l-29 -193h354l-12 -69h-350l-152 -1068q-18 -141 -84.5 -208.5t-197.5 -67.5q-88 0 -195 10z" />
<glyph unicode="g" horiz-adv-x="1169" d="M41 -434l10 57q89 -5 170 -5q98 0 185 7q176 16 277 103.5t130 261.5q37 211 59 268q-113 -133 -250 -208t-253 -75q-176 0 -227 121q-29 66 -29 180q0 95 20 224q49 311 150.5 411.5t353.5 100.5q176 0 397 -31h13l-152 -985q-61 -412 -477 -442q-66 -5 -133 -5 q-122 0 -244 17zM208 150q34 -101 173 -101q100 0 230 72t251 201l94 606q-250 12 -299 12q-236 0 -316.5 -83t-125.5 -368q-22 -130 -22 -219q0 -74 15 -120z" />
<glyph unicode="h" horiz-adv-x="1167" d="M98 0l203 1434h80l-59 -433q-16 -119 -46 -247q305 258 504 258q130 0 190 -70q47 -54 47 -145q0 -27 -5 -58l-105 -739h-82l105 727q4 29 4 53q0 72 -31 109q-41 49 -143 49q-100 0 -211 -61.5t-273 -194.5l-98 -682h-80z" />
<glyph unicode="i" horiz-adv-x="460" d="M106 0l140 987h80l-140 -987h-80zM270 1245l19 123q2 31 35 31h36q33 0 29 -35l-18 -125q-2 -29 -33 -29h-35q-37 0 -33 35z" />
<glyph unicode="j" horiz-adv-x="462" d="M-63 -391q135 150 159 317l150 1061h80l-150 -1067q-27 -197 -196 -346zM270 1245l19 123q2 31 35 31h36q33 0 29 -35l-18 -125q-2 -29 -33 -29h-35q-37 0 -33 35z" />
<glyph unicode="k" horiz-adv-x="1015" d="M98 0l203 1434h80l-105 -772q-12 -92 -43 -197q501 160 646 522h84q-104 -274 -377 -442l55 -105l215 -440h-90l-246 508q-117 -61 -284 -117l-58 -391h-80z" />
<glyph unicode="l" horiz-adv-x="557" d="M129 207l174 1227h80l-170 -1219q-3 -21 -3 -40q0 -114 134 -114h117l2 -59q-45 -16 -144 -16q-100 0 -152 58q-41 46 -41 121q0 20 3 42z" />
<glyph unicode="m" horiz-adv-x="1792" d="M98 0l140 987h61l-25 -233q137 129 246 193.5t209 64.5q125 0 185 -64q51 -54 51 -150q0 -16 -2 -34q135 125 239.5 186.5t202.5 61.5q131 0 191 -71q45 -54 45 -142q0 -28 -5 -60l-104 -739h-80l102 727q4 29 4 53q0 72 -32 109q-42 49 -144 49q-88 0 -181 -57.5 t-249 -192.5l-96 -688h-80l103 727q4 28 4 53q0 71 -31 108q-41 50 -145 50q-90 0 -185.5 -58.5t-247.5 -193.5l-96 -686h-80z" />
<glyph unicode="n" horiz-adv-x="1167" d="M98 0l140 987h63l-27 -233q305 258 506 258q130 0 190 -70q47 -54 47 -145q0 -27 -5 -58l-105 -739h-82l105 727q4 29 4 53q0 72 -31 109q-41 49 -143 49q-98 0 -210 -60.5t-276 -191.5l-96 -686h-80z" />
<glyph unicode="o" d="M117 498q41 283 153.5 398.5t354.5 115.5q243 0 327 -119q57 -81 58 -240q0 -74 -13 -166q-41 -283 -153.5 -397.5t-351.5 -114.5q-244 0 -329 119q-58 82 -58 241q0 73 12 163zM203 487q-12 -89 -12 -158q1 -126 41 -187q64 -95 260 -95q199 0 293 98.5t128 352.5 q13 89 13 159q0 125 -41 186q-63 95 -260 95q-201 0 -294 -97.5t-128 -353.5z" />
<glyph unicode="p" horiz-adv-x="1159" d="M35 -442l203 1429h63l-25 -244q111 123 247 196t239 73q180 0 229 -119q27 -65 27 -179q0 -96 -19 -227q-47 -311 -149 -411.5t-356 -100.5q-152 0 -322 23q-2 -78 -18 -191l-37 -249h-82zM188 57q238 -12 285 -12q238 0 321 85t124 368q21 128 21 216q0 77 -16 124 q-34 100 -171 100q-94 0 -226.5 -71.5t-253.5 -198.5z" />
<glyph unicode="q" horiz-adv-x="1157" d="M129 500q29 213 85 323.5t142 149.5t240 39q192 0 430 -66l-195 -1388h-81l61 424q27 170 51 272q-131 -143 -244.5 -211t-244.5 -68q-166 0 -225 116q-36 69 -36 199q0 90 17 210zM211 489q-15 -117 -15 -201q0 -94 19 -144q35 -95 176 -95q113 0 209 58t258 210l82 586 q-176 37 -322 37q-215 0 -293.5 -87t-113.5 -364z" />
<glyph unicode="r" horiz-adv-x="792" d="M98 0l140 987h61l-25 -239q285 264 490 264h43l-23 -78h-39q-96 0 -201.5 -60.5t-269.5 -193.5l-96 -680h-80z" />
<glyph unicode="s" horiz-adv-x="1024" d="M61 2l11 59q151 -14 304 -14h38q199 4 273.5 36t88.5 136q2 20 2 37q0 52 -24 78q-32 34 -119 69l-313 123q-109 42 -153 96q-32 39 -32 112q0 26 4 57q23 141 112 183q81 38 254 39q16 0 34 -1q197 -2 391 -27l-12 -59q-240 12 -377 14q-23 1 -44 1q-141 1 -197 -23 q-64 -26 -81 -136q-4 -24 -3 -44q0 -48 20 -74q28 -38 112 -70l316 -123q114 -45 160 -99q34 -40 34 -110q0 -25 -4 -53q-10 -78 -43 -126t-94.5 -71.5t-126 -30t-174.5 -6.5q-164 0 -357 27z" />
<glyph unicode="t" horiz-adv-x="716" d="M102 918l9 59l182 8l43 307h80l-41 -305h352l-12 -69h-350l-99 -703q-3 -21 -4 -40q0 -114 135 -114h176l2 -59q-92 -16 -186 -16q-117 0 -169 58q-40 44 -40 119q0 23 4 48l99 707h-181z" />
<glyph unicode="u" d="M125 248l104 739h82l-104 -727q-4 -29 -3 -53q0 -71 30 -108q40 -50 145 -50q102 0 207.5 64.5t257.5 208.5l94 665h80l-139 -987h-62l27 248q-272 -272 -486 -273q-134 0 -194 70q-45 52 -44 139q0 30 5 64z" />
<glyph unicode="v" horiz-adv-x="1044" d="M113 987h86l184 -919h37q33 0 51 10t45 43q88 111 193 301q151 276 219 565h84q-76 -317 -236 -600q-129 -223 -215 -326q-51 -61 -127 -61h-84q-29 0 -33 27z" />
<glyph unicode="w" horiz-adv-x="1685" d="M113 987h84l165 -919h27q43 0 80 51q84 119 162 307q94 219 170 539q4 27 30 22h87q27 0 30 -24l131 -895h25q41 0 78 53q117 172 180 303q123 250 186 563h86q-82 -350 -209 -600q-119 -225 -200 -328q-53 -59 -121 -59h-57q-29 0 -33 27l-129 899h-23 q-59 -283 -162 -520q-37 -92 -92 -193.5t-94 -149.5q-47 -63 -127 -63h-57q-25 0 -33 27z" />
<glyph unicode="x" horiz-adv-x="1038" d="M-20 0l436 514l-269 473h86l246 -438h60l372 438h95l-404 -475l291 -512h-88l-270 481h-54l-403 -481h-98z" />
<glyph unicode="y" horiz-adv-x="1060" d="M78 -373q111 35 207 124t200 249h-77q-39 0 -66 22.5t-35 57.5l-198 907h86l182 -870q13 -47 54 -47h7h90l52 82q227 374 352 835h84q-119 -467 -361 -856q-162 -266 -286.5 -396t-276.5 -163z" />
<glyph unicode="z" horiz-adv-x="1003" d="M18 0l11 70l809 845h-682l8 72h786l-10 -72l-811 -845h698l-10 -70h-799z" />
<glyph unicode="{" horiz-adv-x="620" d="M111 635l12 78q94 29 115 49q29 29 41 121l61 430q18 141 91.5 202.5t227.5 57.5l-4 -55q-115 0 -169 -51.5t-68 -161.5l-56 -406q-18 -123 -55 -164t-141 -63q96 -35 124.5 -78t14.5 -148l-72 -522q-16 -109 22 -158t153 -49l-7 -55q-152 -2 -210 61.5t-37 202.5l75 549 q10 74 -12 100.5t-94 55.5q-8 2 -12 4z" />
<glyph unicode="|" horiz-adv-x="483" d="M76 -346l272 1945h68l-273 -1945h-67z" />
<glyph unicode="}" horiz-adv-x="618" d="M-41 -338l4 55q115 0 167 51.5t67 159.5l75 525q14 106 51 145t148 74q-94 23 -120.5 66.5t-8.5 166.5l59 406q14 111 -22.5 159t-153.5 48l4 55q152 4 210.5 -60.5t39.5 -203.5l-61 -432q-12 -94 6 -118t104 -50l-12 -78q-53 -18 -68.5 -25.5t-43 -26t-37 -43 t-15.5 -67.5l-76 -547q-20 -141 -91.5 -201.5t-225.5 -58.5z" />
<glyph unicode="~" horiz-adv-x="1085" d="M156 489q8 100 55 150.5t121 46.5q88 -6 210 -68.5t199 -66.5q61 -4 93 25.5t43 101.5l49 -6q-8 -94 -56.5 -144.5t-119.5 -44.5q-106 6 -225 68.5t-185 66.5q-117 12 -135 -135z" />
<glyph unicode="&#xa1;" horiz-adv-x="483" d="M57 -416l95 662l53 323h67l-39 -323l-94 -662h-82zM227 834l17 122q6 33 39 33h28q33 0 31 -37l-18 -118q-4 -37 -39 -37h-25q-39 0 -33 37z" />
<glyph unicode="&#xa2;" horiz-adv-x="1030" d="M152 721q39 283 156.5 397.5t363.5 114.5h2l39 180h55l-39 -180q145 -8 227 -39l-16 -55q-82 18 -227 22l-189 -891h25q147 0 293 25l8 -59q-166 -39 -311 -39l-33 2l-43 -199h-55l45 201q-199 18 -268.5 139t-32.5 381zM236 715q-33 -231 20 -329t213 -112l188 887 q-201 -6 -294 -101t-127 -345z" />
<glyph unicode="&#xa3;" horiz-adv-x="1146" d="M57 0l9 74q111 61 163 168.5t66 267.5l18 205h-168l9 57h165l27 307q12 117 45 190.5t93.5 108.5t122 46.5t159.5 11.5q146 -1 332 -21l-11 -63q-201 10 -356 10q-152 0 -220.5 -64.5t-82.5 -220.5l-27 -305h494l-10 -57h-490l-18 -201q-14 -160 -60.5 -269.5 t-148.5 -172.5q37 2 123 2h670l-9 -74h-895z" />
<glyph unicode="&#xa4;" horiz-adv-x="1226" d="M133 326l162 141q-76 109 -57 258q18 170 124 272l-141 162l43 39l142 -162q113 80 264 80q156 0 250 -88l161 143l37 -45l-160 -139q82 -111 64 -270q-18 -162 -119 -264l141 -162l-43 -37l-139 162q-115 -88 -270 -88q-160 0 -260 96l-160 -141zM295 717 q-16 -145 63 -237.5t222 -96.5q158 -4 263 91t122 253q14 145 -64 239.5t-231 94.5q-160 0 -259.5 -95.5t-115.5 -248.5z" />
<glyph unicode="&#xa5;" horiz-adv-x="1239" d="M154 352l8 58h385l22 159l-4 9h-379l7 57h348l-332 778h88l260 -612q2 -6 24.5 -61.5t32.5 -84.5h17q37 61 96 146l430 612h94l-549 -778h357l-8 -57h-389l-9 -11l-20 -157h395l-10 -58h-393l-52 -352h-84l50 352h-385z" />
<glyph unicode="&#xa6;" horiz-adv-x="483" d="M76 -346l114 819h68l-115 -819h-67zM233 780l115 819h68l-115 -819h-68z" />
<glyph unicode="&#xa7;" horiz-adv-x="1112" d="M31 -281l10 64q264 -14 420 -16q63 0 99 1t82 10t71.5 26.5t48 52t29.5 84.5q16 145 -119 229l-348 213q-125 76 -147.5 186.5t30.5 268.5l65 -4q-39 -135 -25.5 -226.5t103.5 -146.5l357 -219q104 -63 143 -135t24 -177q-12 -82 -44.5 -131t-91 -71.5t-115 -27.5 t-150.5 -5q-217 4 -442 24zM231 1210q20 139 112.5 184.5t287.5 43.5q242 0 442 -25l-10 -61q-195 12 -418 14q-164 2 -238.5 -27.5t-91.5 -140.5q-20 -143 121 -227l348 -215q125 -78 146.5 -190.5t-31.5 -270.5l-65 2q39 137 24.5 231.5t-104.5 151.5l-353 219 q-109 68 -146.5 138.5t-23.5 172.5z" />
<glyph unicode="&#xa8;" horiz-adv-x="823" d="M297 1255l16 111q2 31 33 31h27q29 0 26 -31l-16 -109q-6 -33 -35 -32h-24q-29 0 -27 30zM655 1255l17 111q4 31 33 31h26q31 0 27 -31l-17 -109q-6 -33 -34 -32h-25q-29 0 -27 30z" />
<glyph unicode="&#xa9;" horiz-adv-x="1740" d="M156 711q41 322 263 524.5t562 202.5q315 0 497.5 -204t139.5 -532q-43 -324 -265.5 -525.5t-559.5 -201.5q-315 0 -497.5 205t-139.5 531zM209 702q-39 -303 128 -489t454 -186q315 0 524 190.5t248 493.5q39 301 -126 488t-456 187q-315 0 -523 -190t-249 -494z M498 717q37 258 140 361.5t325 103.5q154 0 268 -27l-14 -45q-109 10 -250 10q-193 0 -280 -88t-122 -325q-31 -225 28.5 -313.5t240.5 -88.5q194 0 292 14l7 -49q-121 -27 -291 -26q-227 0 -303 105.5t-41 367.5z" />
<glyph unicode="&#xaa;" horiz-adv-x="911" d="M184 889q29 205 113 274.5t252 69.5q104 0 270 -23l-92 -657h-53l14 147q-68 -76 -150.5 -118.5t-156.5 -42.5q-129 0 -177 70.5t-20 279.5zM252 883q-25 -172 5 -228.5t132 -56.5q137 0 303 162l58 409q-117 6 -185 7q-156 0 -221 -55.5t-92 -237.5z" />
<glyph unicode="&#xab;" horiz-adv-x="937" d="M86 506l2 22l389 404l37 -35l-348 -387l242 -389l-43 -31zM422 506l2 22l389 404l37 -35l-348 -387l241 -389l-43 -31z" />
<glyph unicode="&#xac;" horiz-adv-x="1208" d="M166 573l8 68h866l-53 -367h-69l43 299h-795z" />
<glyph unicode="&#xad;" horiz-adv-x="968" d="M150 481l10 68h633l-9 -68h-634z" />
<glyph unicode="&#xae;" horiz-adv-x="1173" d="M186 995q23 207 160 324t338 117q209 0 322.5 -126t89.5 -333q-25 -197 -159 -325t-337 -128q-205 0 -321.5 130t-92.5 341zM227 987q-20 -193 84.5 -308.5t288.5 -115.5q186 0 308 120t145 304q23 190 -79 300t-290 110q-195 0 -315.5 -111.5t-141.5 -298.5zM391 698 l80 566q76 6 201 6t175 -31t38 -131q-8 -72 -40 -104.5t-104 -42.5v-5q45 -14 64 -82l47 -176h-51l-45 179q-18 68 -90 67q-166 0 -193 2l-35 -248h-47zM479 981h176q94 2 134 26.5t49 106.5q10 74 -24 95.5t-134 21.5l-166 -2z" />
<glyph unicode="&#xaf;" horiz-adv-x="819" d="M248 1272l8 67h543l-8 -67h-543z" />
<glyph unicode="&#xb0;" horiz-adv-x="770" d="M211 1190q12 111 90.5 179.5t187.5 68.5q113 0 178.5 -73t53.5 -185q-12 -115 -92 -183.5t-189 -68.5q-117 0 -178 76.5t-51 185.5zM270 1182q-8 -86 39 -142.5t133 -56.5t148.5 55.5t71.5 147.5q10 86 -38.5 141t-136.5 55t-148 -56t-69 -144z" />
<glyph unicode="&#xb1;" horiz-adv-x="1216" d="M115 180l10 66h866l-10 -66h-866zM186 684l11 66h397l41 294h70l-43 -294h399l-10 -66h-398l-43 -295h-65l41 295h-400z" />
<glyph unicode="&#xb2;" horiz-adv-x="878" d="M158 737l4 45q4 23 14 31l346 309q109 96 160 167t59 138q6 68 -38 88.5t-148 20.5q-125 0 -270 -23l-6 54q150 33 276 32q141 0 206.5 -37.5t51.5 -142.5q-12 -80 -61.5 -149.5t-159.5 -169.5l-336 -297q51 2 152 2h354l-6 -68h-598z" />
<glyph unicode="&#xb3;" horiz-adv-x="839" d="M156 743l12 56q145 -18 248 -13q244 16 272 197q12 78 -26.5 125t-157.5 49h-174l6 53l172 4q80 0 129 31t64.5 66t21.5 84q10 84 -30 113.5t-169 29.5q-86 0 -233 -14l-6 55q131 20 247 20q156 0 214.5 -46t44.5 -152q-27 -193 -170 -213l-3 -6q168 -23 140 -211 q-16 -104 -96 -173t-238 -75q-129 -6 -268 20z" />
<glyph unicode="&#xb4;" horiz-adv-x="587" d="M211 1161l358 301l47 -63l-370 -279z" />
<glyph unicode="&#xb6;" horiz-adv-x="1218" d="M147 956q41 283 187.5 382.5t478.5 99.5q162 0 305 -35l-198 -1403h-74l192 1358q-102 12 -280 16l-254 -1804h-72l119 842q-475 53 -404 544z" />
<glyph unicode="&#xb7;" horiz-adv-x="434" d="M147 467l19 123q6 33 39 33h31q35 0 30 -37l-18 -123q-2 -33 -37 -33h-31q-37 0 -33 37z" />
<glyph unicode="&#xb8;" horiz-adv-x="456" d="M-49 -455l16 47q96 -4 166 48.5t82 130.5q8 51 -14 69.5t-92 20.5l8 43q188 12 162 -140q-16 -111 -107.5 -173t-220.5 -46z" />
<glyph unicode="&#xb9;" horiz-adv-x="579" d="M209 1497l262 88h72l-121 -848h-70l101 715q6 39 14 66l-254 -72z" />
<glyph unicode="&#xba;" horiz-adv-x="911" d="M182 891q27 188 106 265t249 77q176 0 237.5 -79t32.5 -273q-27 -190 -106.5 -266t-249.5 -76q-174 0 -234.5 78.5t-34.5 273.5zM252 881q-23 -162 20 -223.5t178.5 -61.5t199 64.5t87.5 230.5q23 164 -20 224.5t-178 60.5q-139 0 -202 -63.5t-85 -231.5z" />
<glyph unicode="&#xbb;" horiz-adv-x="935" d="M61 125l349 385l-242 391l43 31l278 -416l-2 -22l-389 -404zM397 125l348 385l-241 391l43 31l278 -416l-2 -22l-389 -404z" />
<glyph unicode="&#xbc;" horiz-adv-x="1718" d="M168 0l1165 1413h70l-1165 -1413h-70zM195 1323l264 90h67l-118 -848h-68l100 721q10 51 15 66l-258 -74zM897.5 260q-18.5 35 7.5 76l363 512h71l-362 -514q-14 -20 -6 -36.5t35 -16.5h411l37 264l33 143h51l-55 -407h96l-8 -48l-96 -6l-33 -227h-64l31 225h-446 q-47 0 -65.5 35z" />
<glyph unicode="&#xbd;" horiz-adv-x="1771" d="M164 0l1163 1413h70l-1164 -1413h-69zM193 1323l264 90h67l-118 -848h-68l100 721q6 39 15 66l-256 -74zM969 0l6 41q2 16 16 31l350 309q205 184 222 309q8 72 -37 92.5t-152 20.5q-129 0 -274 -23l-8 49q154 33 278 33q152 0 216.5 -37t47.5 -145q-10 -76 -62 -146.5 t-165 -171.5l-346 -303q80 2 160 0h368l-10 -59h-610z" />
<glyph unicode="&#xbe;" horiz-adv-x="1906" d="M125 567l8 51q147 -14 264 -14q129 0 191.5 47t77.5 156q12 80 -26 127t-163 49h-178l8 49l172 2q201 4 226 187q12 84 -32 114.5t-173 30.5q-111 0 -242 -12l-6 49q129 20 250 20q168 0 227 -44t43 -156q-24 -182 -180 -209l-6 -4q170 -25 149 -219q-16 -127 -90 -185.5 t-231 -58.5q-109 0 -289 20zM383 0l1165 1413h70l-1165 -1413h-70zM1084.5 260q-19.5 35 7.5 76l364 512h70l-363 -514q-14 -20 -6 -36.5t35 -16.5h395l39 264l33 143h51l-57 -407h112l-6 -48l-114 -6l-31 -227h-66l33 225h-432q-45 0 -64.5 35z" />
<glyph unicode="&#xbf;" horiz-adv-x="1017" d="M0 -127q12 84 61.5 156.5t114 128t129 113t116.5 139.5t66 180l72 -4q-14 -106 -64.5 -193.5t-113 -147t-124.5 -112.5t-111.5 -119.5t-59.5 -142.5q-18 -129 50.5 -189.5t236.5 -60.5q193 0 411 27l9 -60q-25 -4 -74 -12t-73.5 -11t-69 -7t-95.5 -6.5t-116 -2.5 q-201 0 -293 82t-72 242zM514 852l18 125q2 31 35 31h29q37 0 31 -35l-17 -123q-2 -35 -37 -35h-26q-35 0 -33 37z" />
<glyph unicode="&#xc0;" horiz-adv-x="1236" d="M-49 0l690 1389q8 25 37 24h115q31 0 34 -29l299 -1384h-86l-102 496h-651l-244 -496h-92zM322 571h600l-138 658q-2 14 -10 53t-12 61h-62l-55 -116zM502 1784l53 59l285 -301l-37 -39z" />
<glyph unicode="&#xc1;" horiz-adv-x="1236" d="M-49 0l690 1389q8 25 37 24h115q31 0 34 -29l299 -1384h-86l-102 496h-651l-244 -496h-92zM322 571h600l-138 658q-2 14 -10 53t-12 61h-62l-55 -116zM647 1546l359 299l47 -63l-371 -279z" />
<glyph unicode="&#xc2;" horiz-adv-x="1236" d="M-49 0l690 1389q8 25 37 24h115q31 0 34 -29l299 -1384h-86l-102 496h-651l-244 -496h-92zM322 571h600l-138 658q-2 14 -10 53t-12 61h-62l-55 -116zM453 1567l309 243h59l248 -247l-35 -35l-237 207h-19l-299 -209z" />
<glyph unicode="&#xc3;" horiz-adv-x="1236" d="M-49 0l690 1389q8 25 37 24h115q31 0 34 -29l299 -1384h-86l-102 496h-651l-244 -496h-92zM322 571h600l-138 658q-2 14 -10 53t-12 61h-62l-55 -116zM459 1587q8 98 57 149.5t121 45.5q63 -6 140 -67.5t132 -65.5q120 -12 138 125l47 -7q-8 -94 -56.5 -142t-119.5 -42 q-76 6 -154 66.5t-121 66.5q-61 6 -94 -26.5t-43 -106.5z" />
<glyph unicode="&#xc4;" horiz-adv-x="1236" d="M-49 0l690 1389q8 25 37 24h115q31 0 34 -29l299 -1384h-86l-102 496h-651l-244 -496h-92zM322 571h600l-138 658q-2 14 -10 53t-12 61h-62l-55 -116zM545 1618l16 111q2 33 33 32h29q27 0 24 -32l-16 -109q-2 -33 -35 -33h-25q-29 0 -26 31zM903 1618l17 111q2 33 32 32 h29q27 0 25 -32l-17 -109q-2 -33 -35 -33h-24q-29 0 -27 31z" />
<glyph unicode="&#xc5;" horiz-adv-x="1236" d="M-49 0l690 1389q8 25 37 24h115q31 0 34 -29l299 -1384h-86l-102 496h-651l-244 -496h-92zM322 571h600l-138 658q-2 14 -10 53t-12 61h-62l-55 -116zM573 1675q10 80 69.5 137.5t148.5 57.5q90 0 143 -59.5t43 -145.5q-10 -80 -70.5 -137.5t-148.5 -57.5 q-90 0 -142.5 59.5t-42.5 145.5zM629 1667q-6 -63 29.5 -104t99 -41t108.5 44t54 107q8 61 -28 103.5t-101 42.5q-63 0 -108.5 -44.5t-53.5 -107.5z" />
<glyph unicode="&#xc6;" horiz-adv-x="1855" d="M-68 0l959 1229q88 111 174 147.5t217 36.5q362 0 573 -8l-10 -64h-542q-72 0 -122.5 -44t-62.5 -119l-53 -390h618l-10 -69h-618l-68 -490q-10 -72 26 -114.5t107 -42.5h547l-4 -64q-188 -8 -559 -8q-102 0 -157.5 64.5t-41.5 164.5l43 303h-506l-415 -532h-95zM500 604 h458l82 586q4 47 34 92t65 59h-9q-84 -33 -169 -145z" />
<glyph unicode="&#xc7;" d="M162 711q57 403 196.5 565t429.5 162q215 0 363 -37l-18 -62q-158 23 -342 23q-256 0 -373 -143.5t-170 -516.5q-51 -365 24.5 -508t321.5 -143q225 0 385 27l10 -64q-168 -39 -393 -39q-295 0 -393.5 167t-40.5 569zM334 -479l16 47q98 -4 168 48t82 130q6 51 -16 69.5 t-92 20.5l10 43q188 12 162 -139q-16 -111 -107.5 -173.5t-222.5 -45.5z" />
<glyph unicode="&#xc8;" horiz-adv-x="1128" d="M137 229l135 969q14 98 80 156.5t170 58.5q408 0 606 -8l-12 -64h-579q-160 0 -183 -163l-55 -390h657l-10 -67h-655l-68 -492q-10 -72 26 -114.5t107 -42.5h582v-64q-197 -8 -596 -8q-106 0 -163.5 63.5t-41.5 165.5zM502 1833l53 59l287 -301l-39 -39z" />
<glyph unicode="&#xc9;" horiz-adv-x="1128" d="M137 229l135 969q14 98 80 156.5t170 58.5q408 0 606 -8l-12 -64h-579q-160 0 -183 -163l-55 -390h657l-10 -67h-655l-68 -492q-10 -72 26 -114.5t107 -42.5h582v-64q-197 -8 -596 -8q-106 0 -163.5 63.5t-41.5 165.5zM649 1593l359 301l47 -63l-371 -279z" />
<glyph unicode="&#xca;" horiz-adv-x="1128" d="M137 229l135 969q14 98 80 156.5t170 58.5q408 0 606 -8l-12 -64h-579q-160 0 -183 -163l-55 -390h657l-10 -67h-655l-68 -492q-10 -72 26 -114.5t107 -42.5h582v-64q-197 -8 -596 -8q-106 0 -163.5 63.5t-41.5 165.5zM453 1614l309 246h59l250 -248l-35 -37l-237 209 h-19l-299 -209z" />
<glyph unicode="&#xcb;" horiz-adv-x="1128" d="M137 229l135 969q14 98 80 156.5t170 58.5q408 0 606 -8l-12 -64h-579q-160 0 -183 -163l-55 -390h657l-10 -67h-655l-68 -492q-10 -72 26 -114.5t107 -42.5h582v-64q-197 -8 -596 -8q-106 0 -163.5 63.5t-41.5 165.5zM547 1667l16 111q2 31 33 30h27q29 0 26 -30 l-18 -109q-2 -33 -33 -33h-25q-33 0 -26 31zM905 1667l17 111q2 31 32 30h27q29 0 27 -30l-19 -109q-2 -33 -33 -33h-24q-33 0 -27 31z" />
<glyph unicode="&#xcc;" horiz-adv-x="489" d="M119 0l198 1413h84l-198 -1413h-84zM121 1784l53 59l285 -301l-37 -39z" />
<glyph unicode="&#xcd;" horiz-adv-x="489" d="M119 0l198 1413h84l-198 -1413h-84zM266 1546l359 299l47 -63l-371 -279z" />
<glyph unicode="&#xce;" horiz-adv-x="489" d="M72 1567l309 243h59l250 -247l-37 -35l-237 207h-17l-299 -209zM119 0l198 1413h84l-198 -1413h-84z" />
<glyph unicode="&#xcf;" horiz-adv-x="489" d="M119 0l198 1413h84l-198 -1413h-84zM164 1618l16 111q6 32 33 32h29q27 0 24 -32l-16 -109q-2 -33 -33 -33h-27q-29 0 -26 31zM522 1618l17 111q5 32 32 32h29q27 0 25 -32l-17 -109q-2 -33 -35 -33h-24q-29 0 -27 31z" />
<glyph unicode="&#xd0;" horiz-adv-x="1349" d="M59 729l9 57h161l88 627q248 18 467 19q295 0 392.5 -163t42.5 -567q-57 -414 -195.5 -567t-435.5 -153q-219 0 -469 18l102 729h-162zM211 63q172 -6 375 -6q256 0 374.5 139.5t172.5 514.5q51 367 -26 506t-325 139q-213 0 -389 -6l-80 -564h355l-6 -57h-357z" />
<glyph unicode="&#xd1;" horiz-adv-x="1417" d="M119 0l192 1374q6 39 43 39h101q33 0 45 -35l442 -1126q31 -76 66 -176h53q23 176 24 182l160 1155h84l-192 -1374q-6 -39 -43 -39h-105q-33 0 -45 35l-452 1153q-51 133 -58 149h-47q-12 -106 -20 -168l-164 -1169h-84zM561 1587q8 100 56.5 150.5t121.5 44.5 q61 -6 138 -67.5t135 -65.5q121 -12 135 125l47 -7q-8 -94 -55 -142t-121 -42q-59 4 -106.5 35t-87.5 62.5t-79 35.5q-119 12 -137 -133z" />
<glyph unicode="&#xd2;" horiz-adv-x="1355" d="M162 711q57 403 195.5 565t433.5 162q293 0 391 -166t41 -570q-55 -406 -193.5 -566.5t-431.5 -160.5t-393.5 165t-42.5 571zM248 702q-49 -365 27.5 -508t322.5 -143q252 0 368.5 144.5t170.5 515.5q53 369 -23 510t-326 141q-254 0 -370.5 -144.5t-169.5 -515.5z M563 1784l53 59l287 -301l-39 -39z" />
<glyph unicode="&#xd3;" horiz-adv-x="1355" d="M162 711q57 403 195.5 565t433.5 162q293 0 391 -166t41 -570q-55 -406 -193.5 -566.5t-431.5 -160.5t-393.5 165t-42.5 571zM248 702q-49 -365 27.5 -508t322.5 -143q252 0 368.5 144.5t170.5 515.5q53 369 -23 510t-326 141q-254 0 -370.5 -144.5t-169.5 -515.5z M711 1546l358 299l47 -63l-371 -279z" />
<glyph unicode="&#xd4;" horiz-adv-x="1355" d="M162 711q57 403 195.5 565t433.5 162q293 0 391 -166t41 -570q-55 -406 -193.5 -566.5t-431.5 -160.5t-393.5 165t-42.5 571zM248 702q-49 -365 27.5 -508t322.5 -143q252 0 368.5 144.5t170.5 515.5q53 369 -23 510t-326 141q-254 0 -370.5 -144.5t-169.5 -515.5z M514 1567l309 243h60l250 -247l-35 -35l-238 207h-18l-299 -209z" />
<glyph unicode="&#xd5;" horiz-adv-x="1355" d="M162 711q57 403 195.5 565t433.5 162q293 0 391 -166t41 -570q-55 -406 -193.5 -566.5t-431.5 -160.5t-393.5 165t-42.5 571zM248 702q-49 -365 27.5 -508t322.5 -143q252 0 368.5 144.5t170.5 515.5q53 369 -23 510t-326 141q-254 0 -370.5 -144.5t-169.5 -515.5z M522 1587q8 100 56.5 150.5t121.5 44.5q63 -6 139 -67.5t132 -65.5q123 -12 137 125l47 -7q-8 -94 -55 -142t-121 -42q-59 4 -106.5 35t-87.5 62.5t-78 35.5q-120 12 -138 -133z" />
<glyph unicode="&#xd6;" horiz-adv-x="1355" d="M162 711q57 403 195.5 565t433.5 162q293 0 391 -166t41 -570q-55 -406 -193.5 -566.5t-431.5 -160.5t-393.5 165t-42.5 571zM248 702q-49 -365 27.5 -508t322.5 -143q252 0 368.5 144.5t170.5 515.5q53 369 -23 510t-326 141q-254 0 -370.5 -144.5t-169.5 -515.5z M608 1618l17 111q1 32 32 32h27q29 0 27 -32l-19 -109q-2 -33 -33 -33h-24q-33 0 -27 31zM965 1618l18 111q2 32 33 32h26q29 0 27 -32l-18 -109q-2 -33 -33 -33h-27q-29 0 -26 31z" />
<glyph unicode="&#xd7;" horiz-adv-x="1077" d="M109 295l374 299l-284 293l49 49l291 -299l381 305l45 -55l-377 -299l286 -297l-49 -51l-293 303l-380 -303z" />
<glyph unicode="&#xd8;" horiz-adv-x="1355" d="M162 711q57 403 195.5 565t433.5 162q180 0 278 -56l86 142l51 -29l-88 -145q92 -78 117 -236t-12 -412q-55 -406 -193.5 -566.5t-431.5 -160.5q-182 0 -283 58l-86 -142l-51 29l90 146q-176 150 -106 645zM232 348q15 -137 81 -207l713 1172q-82 49 -238 49 q-254 0 -370.5 -144.5t-169.5 -515.5q-31 -217 -16 -354zM358 104q86 -53 240 -53q252 0 368.5 144.5t170.5 515.5q33 221 18.5 359t-82.5 206z" />
<glyph unicode="&#xd9;" horiz-adv-x="1363" d="M182 530l123 883h86l-125 -889q-37 -262 39 -367.5t297 -105.5q223 0 331.5 108.5t145.5 370.5l123 883h86l-125 -889q-43 -299 -169 -424t-390 -125q-268 0 -365.5 128t-56.5 427zM561 1784l53 59l287 -301l-39 -39z" />
<glyph unicode="&#xda;" horiz-adv-x="1363" d="M182 530l123 883h86l-125 -889q-37 -262 39 -367.5t297 -105.5q223 0 331.5 108.5t145.5 370.5l123 883h86l-125 -889q-43 -299 -169 -424t-390 -125q-268 0 -365.5 128t-56.5 427zM709 1546l358 299l47 -63l-371 -279z" />
<glyph unicode="&#xdb;" horiz-adv-x="1363" d="M182 530l123 883h86l-125 -889q-37 -262 39 -367.5t297 -105.5q223 0 331.5 108.5t145.5 370.5l123 883h86l-125 -889q-43 -299 -169 -424t-390 -125q-268 0 -365.5 128t-56.5 427zM512 1567l309 243h60l249 -247l-34 -35l-238 207h-18l-299 -209z" />
<glyph unicode="&#xdc;" horiz-adv-x="1363" d="M182 530l123 883h86l-125 -889q-37 -262 39 -367.5t297 -105.5q223 0 331.5 108.5t145.5 370.5l123 883h86l-125 -889q-43 -299 -169 -424t-390 -125q-268 0 -365.5 128t-56.5 427zM606 1618l17 111q1 32 32 32h27q29 0 27 -32l-19 -109q-2 -33 -33 -33h-24q-33 0 -27 31 zM963 1618l18 111q2 32 33 32h26q29 0 27 -32l-18 -109q-2 -33 -33 -33h-27q-29 0 -26 31z" />
<glyph unicode="&#xdd;" horiz-adv-x="1112" d="M145 1413h86l258 -661q37 -96 54 -148h14q41 74 92 150l445 659h92l-602 -895l-74 -518h-86l76 520zM575 1546l357 299l49 -63l-371 -279z" />
<glyph unicode="&#xde;" horiz-adv-x="1196" d="M119 0l160 1124v2l38 287h86l-38 -278q106 8 370 8q233 0 317.5 -92.5t47.5 -335.5q-33 -244 -135.5 -332t-331.5 -88q-199 0 -385 14l-43 -309h-86zM256 371h371q193 4 276.5 75.5t112.5 278.5q27 203 -32.5 273.5t-248.5 70.5q-225 0 -381 -4z" />
<glyph unicode="&#xdf;" horiz-adv-x="1337" d="M-258 -416l8 62h160q111 0 161 47t68 168l150 1057h-180l8 59l180 8l16 111q14 98 45 166.5t70 107.5t100.5 59.5t115.5 26.5t136 6q238 0 334 -51t84 -190q-8 -104 -65.5 -162t-169.5 -103q-16 -6 -70.5 -24.5t-70 -24.5t-51.5 -24.5t-48 -35t-25.5 -43t-17.5 -59.5 q-4 -53 20.5 -86.5t90.5 -66.5l245 -123q98 -49 135 -103.5t25 -154.5q-20 -143 -111.5 -188.5t-275.5 -45.5q-166 0 -317 23l10 61q172 -16 315 -12q145 2 214 36t83 138q6 41 1 71t-25.5 51.5t-33 29.5t-46.5 26l-15 9l-245 122q-86 45 -121 94.5t-27 127.5q2 25 9 45 t14.5 36.5t24 33t25.5 26.5t33.5 23.5t36 20.5t43 19.5t43 17.5t49.5 18.5t50 17.5q39 14 61.5 26.5t57 37t53 62.5t20.5 89q4 57 -18.5 91t-95 54.5t-207.5 20.5q-213 0 -297 -61.5t-111 -244.5l-174 -1237q-23 -150 -89.5 -213t-205.5 -63q-80 0 -182 10z" />
<glyph unicode="&#xe0;" horiz-adv-x="1159" d="M133 500q49 311 150.5 411.5t357.5 100.5q172 0 391 -31l-137 -981h-64l27 242q-111 -125 -244 -196t-243 -71q-180 0 -231.5 121t-6.5 404zM208 149q34 -100 171 -100q102 0 230 70.5t249 199.5l84 609q-233 12 -285 12q-236 0 -317.5 -84t-124.5 -367q-41 -240 -7 -340 zM416 1411l53 59l285 -301l-37 -39z" />
<glyph unicode="&#xe1;" horiz-adv-x="1159" d="M133 500q49 311 150.5 411.5t357.5 100.5q172 0 391 -31l-137 -981h-64l27 242q-111 -125 -244 -196t-243 -71q-180 0 -231.5 121t-6.5 404zM208 149q34 -100 171 -100q102 0 230 70.5t249 199.5l84 609q-233 12 -285 12q-236 0 -317.5 -84t-124.5 -367q-41 -240 -7 -340 zM561 1174l359 299l49 -64l-371 -279z" />
<glyph unicode="&#xe2;" horiz-adv-x="1159" d="M133 500q49 311 150.5 411.5t357.5 100.5q172 0 391 -31l-137 -981h-64l27 242q-111 -125 -244 -196t-243 -71q-180 0 -231.5 121t-6.5 404zM208 149q34 -100 171 -100q102 0 230 70.5t249 199.5l84 609q-233 12 -285 12q-236 0 -317.5 -84t-124.5 -367q-41 -240 -7 -340 zM367 1194l309 246h59l250 -248l-35 -37l-237 209h-19l-299 -209z" />
<glyph unicode="&#xe3;" horiz-adv-x="1159" d="M133 500q49 311 150.5 411.5t357.5 100.5q172 0 391 -31l-137 -981h-64l27 242q-111 -125 -244 -196t-243 -71q-180 0 -231.5 121t-6.5 404zM208 149q34 -100 171 -100q102 0 230 70.5t249 199.5l84 609q-233 12 -285 12q-236 0 -317.5 -84t-124.5 -367q-41 -240 -7 -340 zM373 1217q10 100 58 149t120 43q63 -6 140 -66.5t132 -66.5q63 -4 95.5 25.5t42.5 99.5l47 -4q-8 -94 -55.5 -143.5t-121.5 -43.5q-76 6 -153.5 67.5t-118.5 65.5q-117 12 -139 -133z" />
<glyph unicode="&#xe4;" horiz-adv-x="1159" d="M133 500q49 311 150.5 411.5t357.5 100.5q172 0 391 -31l-137 -981h-64l27 242q-111 -125 -244 -196t-243 -71q-180 0 -231.5 121t-6.5 404zM208 149q34 -100 171 -100q102 0 230 70.5t249 199.5l84 609q-233 12 -285 12q-236 0 -317.5 -84t-124.5 -367q-41 -240 -7 -340 zM459 1247l18 111q2 31 33 31h27q31 0 24 -31l-16 -109q-2 -32 -33 -32h-27q-29 0 -26 30zM817 1247l17 111q6 31 34 31h27q31 0 25 -31l-17 -109q-2 -32 -33 -32h-26q-29 0 -27 30z" />
<glyph unicode="&#xe5;" horiz-adv-x="1159" d="M133 500q49 311 150.5 411.5t357.5 100.5q172 0 391 -31l-137 -981h-64l27 242q-111 -125 -244 -196t-243 -71q-180 0 -231.5 121t-6.5 404zM208 149q34 -100 171 -100q102 0 230 70.5t249 199.5l84 609q-233 12 -285 12q-236 0 -317.5 -84t-124.5 -367q-41 -240 -7 -340 zM487 1303q10 82 70.5 139t149 57t141.5 -59.5t43 -145.5q-10 -80 -70.5 -138t-148.5 -58q-90 0 -142.5 59.5t-42.5 145.5zM545 1294q-8 -61 28.5 -102t100.5 -41q61 0 107 44t53 108q8 59 -27 101t-100.5 42t-110.5 -44.5t-51 -107.5z" />
<glyph unicode="&#xe6;" horiz-adv-x="1785" d="M129 500q47 309 149.5 410.5t350.5 101.5q190 0 436 -45q102 45 272 45q205 0 292 -69t48 -238q-27 -125 -101.5 -176.5t-236.5 -67.5l-446 -47q-23 -213 49 -290t266 -77q166 0 361 27l8 -58q-137 -41 -391 -41q-174 0 -263 60.5t-110 191.5q-215 -252 -463 -252 q-172 0 -217 127t-4 398zM202.5 153.5q30.5 -104.5 157.5 -104.5q213 0 445 248q-2 84 16 209q41 293 164 407q-258 27 -340 27q-121 0 -192.5 -18.5t-120.5 -72.5t-74 -135t-47 -225q-39 -231 -8.5 -335.5zM901 479l438 49q127 14 181.5 51t76.5 132q8 51 11.5 88t-15 62.5 t-38 41t-56.5 23.5t-71.5 11t-84.5 3q-111 0 -177 -15.5t-121.5 -62.5t-87 -133t-54.5 -229z" />
<glyph unicode="&#xe7;" horiz-adv-x="976" d="M117 498q39 283 157.5 398.5t364.5 115.5q170 0 285 -39l-17 -55q-92 20 -254 20q-217 0 -316 -95t-134 -354q-37 -256 32.5 -348t282.5 -92q174 0 291 23l8 -58q-152 -39 -311 -39q-252 0 -340 119t-49 404zM242 -479l16 47q98 -4 167 48t81 130q8 51 -14.5 69.5 t-92.5 20.5l11 43q92 6 133 -26.5t28 -112.5q-16 -111 -107 -173.5t-222 -45.5z" />
<glyph unicode="&#xe8;" horiz-adv-x="1083" d="M119 506q23 156 62.5 255t105 154.5t146.5 76t204 20.5q205 0 292 -69t48 -238q-27 -125 -101.5 -176.5t-238.5 -67.5l-447 -47q-20 -213 51.5 -290t266.5 -77q163 0 362 27l9 -58q-139 -41 -394 -41q-244 0 -325.5 122t-40.5 409zM199 479l440 49q127 14 180 51t78 132 q8 51 11 88t-15.5 62.5t-37.5 41t-56 23.5t-73 11t-85 3q-111 0 -177.5 -15.5t-120.5 -62.5t-86 -133t-54 -229zM395 1411l54 59l286 -301l-39 -39z" />
<glyph unicode="&#xe9;" horiz-adv-x="1083" d="M119 506q23 156 62.5 255t105 154.5t146.5 76t204 20.5q205 0 292 -69t48 -238q-27 -125 -101.5 -176.5t-238.5 -67.5l-447 -47q-20 -213 51.5 -290t266.5 -77q163 0 362 27l9 -58q-139 -41 -394 -41q-244 0 -325.5 122t-40.5 409zM199 479l440 49q127 14 180 51t78 132 q8 51 11 88t-15.5 62.5t-37.5 41t-56 23.5t-73 11t-85 3q-111 0 -177.5 -15.5t-120.5 -62.5t-86 -133t-54 -229zM543 1174l356 299l49 -64l-370 -279z" />
<glyph unicode="&#xea;" horiz-adv-x="1083" d="M119 506q23 156 62.5 255t105 154.5t146.5 76t204 20.5q205 0 292 -69t48 -238q-27 -125 -101.5 -176.5t-238.5 -67.5l-447 -47q-20 -213 51.5 -290t266.5 -77q163 0 362 27l9 -58q-139 -41 -394 -41q-244 0 -325.5 122t-40.5 409zM199 479l440 49q127 14 180 51t78 132 q8 51 11 88t-15.5 62.5t-37.5 41t-56 23.5t-73 11t-85 3q-111 0 -177.5 -15.5t-120.5 -62.5t-86 -133t-54 -229zM346 1194l309 246h60l250 -248l-35 -37l-238 209h-18l-299 -209z" />
<glyph unicode="&#xeb;" horiz-adv-x="1083" d="M119 506q23 156 62.5 255t105 154.5t146.5 76t204 20.5q205 0 292 -69t48 -238q-27 -125 -101.5 -176.5t-238.5 -67.5l-447 -47q-20 -213 51.5 -290t266.5 -77q163 0 362 27l9 -58q-139 -41 -394 -41q-244 0 -325.5 122t-40.5 409zM199 479l440 49q127 14 180 51t78 132 q8 51 11 88t-15.5 62.5t-37.5 41t-56 23.5t-73 11t-85 3q-111 0 -177.5 -15.5t-120.5 -62.5t-86 -133t-54 -229zM438 1247l19 111q2 31 32 31h27q29 0 27 -31l-19 -109q-1 -32 -32 -32h-27q-29 0 -27 30zM797 1247l18 111q4 31 33 31h26q31 0 25 -31l-16 -109 q-2 -32 -33 -32h-27q-29 0 -26 30z" />
<glyph unicode="&#xec;" horiz-adv-x="460" d="M55 1411l54 59l284 -301l-37 -39zM106 0l140 987h82l-142 -987h-80z" />
<glyph unicode="&#xed;" horiz-adv-x="460" d="M106 0l140 987h82l-142 -987h-80zM201 1174l358 299l47 -64l-370 -279z" />
<glyph unicode="&#xee;" horiz-adv-x="460" d="M6 1194l309 246h60l250 -248l-37 -37l-238 209h-16l-299 -209zM106 0l140 987h82l-142 -987h-80z" />
<glyph unicode="&#xef;" horiz-adv-x="460" d="M98 1247l17 111q5 31 32 31h29q29 0 25 -31l-17 -109q-2 -33 -32 -32h-27q-29 0 -27 30zM106 0l140 987h82l-142 -987h-80zM457 1247l16 111q6 31 33 31h29q27 0 24 -31l-16 -109q-2 -33 -35 -32h-25q-29 0 -26 30z" />
<glyph unicode="&#xf0;" horiz-adv-x="1122" d="M113 457q63 459 458 458q217 0 328 -145q6 319 -147 469l-203 -131l-25 43l187 123q-131 96 -365 96l16 60q260 4 412 -115l187 121l26 -45l-172 -111q217 -213 148 -711q-18 -137 -45 -230t-79.5 -183t-144.5 -135.5t-225 -45.5q-217 0 -304 116t-52 366zM197 444 q-31 -215 35.5 -306t236.5 -91q203 0 291 133t125 412q8 78 12 113q-111 139 -322 139q-178 0 -266 -104.5t-112 -295.5z" />
<glyph unicode="&#xf1;" horiz-adv-x="1167" d="M98 0l140 987h63l-27 -233q305 258 506 258q129 0 189.5 -70t42.5 -203l-105 -739h-82l105 727q14 113 -27 162t-143 49q-98 0 -210 -60.5t-276 -191.5l-96 -686h-80zM354 1217q8 100 56.5 149t121.5 43q63 -6 139.5 -66.5t131.5 -66.5q63 -4 95 25.5t42 99.5l47 -4 q-8 -94 -55 -143.5t-121 -43.5q-76 6 -153.5 67.5t-118.5 65.5q-117 12 -140 -133z" />
<glyph unicode="&#xf2;" d="M117 498q41 283 153.5 398.5t354.5 115.5q244 0 327.5 -119t44.5 -406q-41 -283 -153.5 -397.5t-351.5 -114.5q-244 0 -329 119t-46 404zM203 487q-35 -250 28.5 -345t260.5 -95q199 0 293 98.5t128 352.5q35 250 -28 345t-260 95q-201 0 -294 -97.5t-128 -353.5z M395 1411l54 59l284 -301l-37 -39z" />
<glyph unicode="&#xf3;" d="M117 498q41 283 153.5 398.5t354.5 115.5q244 0 327.5 -119t44.5 -406q-41 -283 -153.5 -397.5t-351.5 -114.5q-244 0 -329 119t-46 404zM203 487q-35 -250 28.5 -345t260.5 -95q199 0 293 98.5t128 352.5q35 250 -28 345t-260 95q-201 0 -294 -97.5t-128 -353.5z M541 1174l358 299l47 -64l-371 -279z" />
<glyph unicode="&#xf4;" d="M117 498q41 283 153.5 398.5t354.5 115.5q244 0 327.5 -119t44.5 -406q-41 -283 -153.5 -397.5t-351.5 -114.5q-244 0 -329 119t-46 404zM203 487q-35 -250 28.5 -345t260.5 -95q199 0 293 98.5t128 352.5q35 250 -28 345t-260 95q-201 0 -294 -97.5t-128 -353.5z M346 1194l309 246h60l250 -248l-37 -37l-238 209h-16l-299 -209z" />
<glyph unicode="&#xf5;" d="M117 498q41 283 153.5 398.5t354.5 115.5q244 0 327.5 -119t44.5 -406q-41 -283 -153.5 -397.5t-351.5 -114.5q-244 0 -329 119t-46 404zM203 487q-35 -250 28.5 -345t260.5 -95q199 0 293 98.5t128 352.5q35 250 -28 345t-260 95q-201 0 -294 -97.5t-128 -353.5z M352 1217q8 98 57.5 148t120.5 44q63 -6 140.5 -66.5t132.5 -66.5q119 -8 137 125l47 -4q-8 -94 -55 -143.5t-121 -43.5q-76 6 -153.5 67.5t-118.5 65.5q-63 6 -96.5 -26.5t-43.5 -106.5z" />
<glyph unicode="&#xf6;" d="M117 498q41 283 153.5 398.5t354.5 115.5q244 0 327.5 -119t44.5 -406q-41 -283 -153.5 -397.5t-351.5 -114.5q-244 0 -329 119t-46 404zM203 487q-35 -250 28.5 -345t260.5 -95q199 0 293 98.5t128 352.5q35 250 -28 345t-260 95q-201 0 -294 -97.5t-128 -353.5z M438 1247l17 111q5 31 32 31h29q29 0 25 -31l-17 -109q-2 -33 -32 -32h-27q-29 0 -27 30zM797 1247l16 111q6 31 33 31h28q27 0 25 -31l-16 -109q-2 -33 -35 -32h-25q-29 0 -26 30z" />
<glyph unicode="&#xf7;" horiz-adv-x="1193" d="M162 571l8 68h866l-10 -68h-864zM492 207l18 117q2 34 37 34h28q37 0 31 -36l-18 -121q-2 -31 -37 -31h-27q-35 0 -32 37zM586 887l18 119q4 34 37 34h27q39 -2 32 -36l-16 -121q-6 -33 -39 -33h-27q-37 0 -32 37z" />
<glyph unicode="&#xf8;" d="M117 498q41 283 153.5 398.5t354.5 115.5q125 0 206 -31l82 135l48 -24l-80 -134q168 -100 116 -471q-41 -283 -153.5 -397.5t-351.5 -114.5q-115 0 -193 25l-82 -133l-47 27l78 126q-96 51 -128 166t-3 312zM197.5 224q19.5 -95 91.5 -136l502 827q-59 23 -166 23 q-201 0 -294 -97.5t-128 -353.5q-25 -168 -5.5 -263zM338 66q63 -18 154 -19q199 0 293 98.5t128 352.5q23 160 5.5 255t-78.5 138z" />
<glyph unicode="&#xf9;" d="M125 248l104 739h82l-104 -727q-14 -111 26.5 -161t145.5 -50q102 0 207.5 64.5t257.5 208.5l94 665h80l-139 -987h-62l27 248q-272 -272 -486 -273q-133 0 -193.5 70t-39.5 203zM391 1413l53 60l285 -302l-37 -38z" />
<glyph unicode="&#xfa;" d="M125 248l104 739h82l-104 -727q-14 -111 26.5 -161t145.5 -50q102 0 207.5 64.5t257.5 208.5l94 665h80l-139 -987h-62l27 248q-272 -272 -486 -273q-133 0 -193.5 70t-39.5 203zM537 1176l358 299l47 -64l-371 -278z" />
<glyph unicode="&#xfb;" d="M125 248l104 739h82l-104 -727q-14 -111 26.5 -161t145.5 -50q102 0 207.5 64.5t257.5 208.5l94 665h80l-139 -987h-62l27 248q-272 -272 -486 -273q-133 0 -193.5 70t-39.5 203zM342 1196l309 246h60l250 -248l-35 -37l-240 209h-16l-299 -209z" />
<glyph unicode="&#xfc;" d="M125 248l104 739h82l-104 -727q-14 -111 26.5 -161t145.5 -50q102 0 207.5 64.5t257.5 208.5l94 665h80l-139 -987h-62l27 248q-272 -272 -486 -273q-133 0 -193.5 70t-39.5 203zM434 1249l17 111q6 31 32 31h29q31 0 25 -31l-17 -109q-2 -32 -33 -32h-26q-29 0 -27 30z M793 1249l16 111q6 31 33 31h28q27 0 25 -31l-16 -109q-2 -32 -33 -32h-27q-29 0 -26 30z" />
<glyph unicode="&#xfd;" horiz-adv-x="1060" d="M78 -373q111 35 207 124t200 249h-77q-39 0 -66 22.5t-35 57.5l-198 907h86l182 -870q14 -51 61 -47h90l52 82q227 374 352 835h84q-119 -467 -361 -856q-162 -266 -286.5 -396t-276.5 -163zM473 1174l358 299l48 -64l-371 -279z" />
<glyph unicode="&#xfe;" horiz-adv-x="1159" d="M41 -426l260 1860h82l-70 -492q-18 -135 -32 -192q111 125 241.5 193.5t241.5 68.5q178 0 228 -120t7 -405q-45 -311 -147 -411.5t-356 -100.5q-150 0 -318 23q-2 -27 -20 -176l-37 -248h-80zM190 59q180 -12 285 -12q236 0 319 84t124 367q39 240 6 340t-170 100 q-102 0 -230.5 -70.5t-249.5 -199.5z" />
<glyph unicode="&#xff;" horiz-adv-x="1060" d="M78 -373q111 35 207 124t200 249h-77q-39 0 -66 22.5t-35 57.5l-198 907h86l182 -870q14 -51 61 -47h90l52 82q227 374 352 835h84q-119 -467 -361 -856q-162 -266 -286.5 -396t-276.5 -163zM371 1247l16 111q2 31 33 31h29q27 0 24 -31l-16 -109q-2 -32 -35 -32h-25 q-29 0 -26 30zM729 1247l16 111q4 31 33 31h29q29 0 24 -31l-16 -109q-2 -32 -35 -32h-24q-29 0 -27 30z" />
<glyph unicode="&#x152;" horiz-adv-x="1832" d="M164 711q57 408 196.5 567.5t448.5 159.5q168 0 307 -66q63 41 146 41q385 0 571 -8l-8 -64h-549q-72 0 -123 -45t-59 -118l-56 -390h623l-8 -69h-623l-69 -490q-10 -72 26.5 -114.5t108.5 -42.5h551l-5 -64q-186 -8 -561 -8q-88 0 -145 45q-88 -39 -154.5 -54.5 t-169.5 -15.5q-309 0 -407.5 161t-40.5 575zM250 702q-53 -367 24.5 -509t341.5 -142q141 0 277 51q-28 53 -16 127l135 969q10 68 47 119q-111 45 -252 45q-264 0 -384 -142.5t-173 -517.5z" />
<glyph unicode="&#x153;" horiz-adv-x="1875" d="M115 498q41 283 153.5 398.5t354.5 115.5q162 0 251 -50.5t119 -160.5q59 121 161.5 166t275.5 45q205 0 291.5 -69t47.5 -238q-27 -125 -101.5 -176.5t-237.5 -67.5l-447 -47q-20 -209 51.5 -287t270.5 -78q172 0 356 25l8 -58q-137 -41 -391 -41q-162 0 -250 51.5 t-117 161.5q-57 -113 -158.5 -163t-263.5 -50q-244 0 -328.5 119t-45.5 404zM201 487q-35 -250 28 -345t260 -95q195 0 288 93t130 329l4 37q2 4 2 14q31 238 -33.5 328t-256.5 90q-201 0 -294 -97.5t-128 -353.5zM995 481l437 47q127 16 181 53t77 130q14 45 10 77.5t-9 57 t-27 41t-42 27t-54 15.5t-64.5 7t-73.5 2q-201 0 -292 -77t-134 -314l-9 -60v-6z" />
<glyph unicode="&#x178;" horiz-adv-x="1112" d="M145 1413h86l258 -661q37 -96 54 -148h14q41 74 92 150l445 659h92l-602 -895l-74 -518h-86l76 520zM471 1618l18 111q2 33 33 32h27q29 0 26 -32l-18 -109q-2 -33 -33 -33h-24q-31 0 -29 31zM829 1618l19 111q2 33 33 32h26q31 0 25 -32l-17 -109q-1 -33 -32 -33h-27 q-29 0 -27 31z" />
<glyph unicode="&#x2c6;" horiz-adv-x="817" d="M203 1202l309 244h59l250 -248l-35 -35l-237 207h-19l-299 -209z" />
<glyph unicode="&#x2dc;" horiz-adv-x="829" d="M213 1221q8 100 56 149t122 43q63 -6 139 -66.5t132 -66.5q123 -8 137 125l47 -4q-8 -94 -55.5 -143.5t-121 -43t-151.5 67.5t-121 66q-119 11 -137 -134z" />
<glyph unicode="&#x2000;" horiz-adv-x="947" />
<glyph unicode="&#x2001;" horiz-adv-x="1894" />
<glyph unicode="&#x2002;" horiz-adv-x="947" />
<glyph unicode="&#x2003;" horiz-adv-x="1894" />
<glyph unicode="&#x2004;" horiz-adv-x="631" />
<glyph unicode="&#x2005;" horiz-adv-x="473" />
<glyph unicode="&#x2006;" horiz-adv-x="315" />
<glyph unicode="&#x2007;" horiz-adv-x="315" />
<glyph unicode="&#x2008;" horiz-adv-x="236" />
<glyph unicode="&#x2009;" horiz-adv-x="378" />
<glyph unicode="&#x200a;" horiz-adv-x="105" />
<glyph unicode="&#x2010;" horiz-adv-x="966" d="M152 481l8 68h633l-9 -68h-632z" />
<glyph unicode="&#x2011;" horiz-adv-x="966" d="M152 481l8 68h633l-9 -68h-632z" />
<glyph unicode="&#x2012;" horiz-adv-x="966" d="M152 481l8 68h633l-9 -68h-632z" />
<glyph unicode="&#x2013;" horiz-adv-x="1255" d="M152 481l8 68h921l-8 -68h-921z" />
<glyph unicode="&#x2014;" horiz-adv-x="1888" d="M152 481l8 68h1554l-10 -68h-1552z" />
<glyph unicode="&#x2018;" horiz-adv-x="409" d="M225 1094l19 133q14 117 82 266l45 -14q-33 -111 -54 -232q10 2 16.5 -6t4.5 -22l-19 -125q-4 -18 -11 -25.5t-27 -7.5h-31q-31 0 -25 33z" />
<glyph unicode="&#x2019;" horiz-adv-x="407" d="M227 1059q37 131 52 229q-10 -2 -16.5 6.5t-4.5 22.5l18 127q4 18 11.5 24.5t27.5 6.5h31q31 0 25 -33l-19 -133q-14 -113 -82 -267z" />
<glyph unicode="&#x201a;" horiz-adv-x="432" d="M55 -227q37 119 56 229q-27 0 -23 29l18 127q4 30 41 30h33q31 0 25 -32l-19 -131q-18 -125 -86 -267z" />
<glyph unicode="&#x201c;" horiz-adv-x="663" d="M225 1094l19 133q14 117 82 266l45 -14q-33 -111 -54 -232q10 2 16.5 -6t4.5 -22l-19 -125q-4 -18 -11 -25.5t-27 -7.5h-31q-31 0 -25 33zM479 1094l19 133q14 117 82 266l45 -14q-33 -111 -54 -232q10 2 16.5 -6t4.5 -22l-19 -125q-4 -18 -11 -25.5t-27 -7.5h-31 q-31 0 -25 33z" />
<glyph unicode="&#x201d;" horiz-adv-x="661" d="M227 1059q37 131 52 229q-10 -2 -16.5 6.5t-4.5 22.5l18 127q4 18 11.5 24.5t27.5 6.5h31q31 0 25 -33l-19 -133q-14 -113 -82 -267zM481 1059q37 131 51 229q-10 -2 -16 6.5t-4 22.5l18 127q4 18 11.5 24.5t27.5 6.5h31q31 0 25 -33l-19 -133q-14 -113 -82 -267z" />
<glyph unicode="&#x201e;" horiz-adv-x="681" d="M55 -227q35 127 54 229q-12 -2 -18.5 6t-4.5 23l18 127q4 18 11.5 24t27.5 6h31q31 0 25 -32l-19 -133q-14 -115 -82 -267zM309 -227q35 127 53 229q-12 -2 -18 6t-4 23l18 127q4 18 11.5 24t27.5 6h31q31 0 25 -32l-19 -133q-14 -115 -82 -267z" />
<glyph unicode="&#x2022;" horiz-adv-x="724" d="M201 541l4 28q10 80 44 105.5t118 25.5h20q78 0 105.5 -32.5t19.5 -110.5l-4 -29q-10 -80 -44 -106.5t-116 -26.5h-20q-82 0 -111 32t-16 114z" />
<glyph unicode="&#x2026;" horiz-adv-x="1613" d="M137 37l17 123q6 33 39 33h30q37 0 31 -37l-18 -123q-2 -33 -37 -33h-31q-37 0 -31 37zM727 37l18 123q6 33 37 33h33q20 0 26.5 -8.5t4.5 -28.5l-19 -123q-2 -33 -36 -33h-31q-37 0 -33 37zM1319 37l18 123q2 33 37 33h33q35 0 31 -37l-19 -123q-2 -33 -37 -33h-30 q-37 0 -33 37z" />
<glyph unicode="&#x202f;" horiz-adv-x="378" />
<glyph unicode="&#x2039;" horiz-adv-x="602" d="M86 506l2 22l389 404l37 -35l-348 -387l242 -389l-43 -31z" />
<glyph unicode="&#x203a;" horiz-adv-x="602" d="M61 125l353 391l-242 387l41 29l279 -412l-3 -22l-391 -408z" />
<glyph unicode="&#x205f;" horiz-adv-x="473" />
<glyph unicode="&#x20ac;" horiz-adv-x="1312" d="M121 557l8 59h188q8 61 13 95q4 27 11 72.5t9 54.5h-190l10 59h195q66 285 211 413t415 128q164 0 297 -37l-18 -64q-129 25 -277 25q-221 -2 -349 -104.5t-191 -360.5h575l-24 -59h-566q-16 -82 -22 -138l-10 -84h514l-25 -59h-496q-18 -276 75 -390t319 -116 q180 0 313 27l10 -64q-150 -39 -323 -39q-279 0 -389.5 141.5t-90.5 440.5h-192z" />
<glyph unicode="&#x2122;" horiz-adv-x="1933" d="M250 1370l8 55h641l-8 -55h-289l-100 -723h-66l101 723h-287zM907 647l140 750q6 29 30 28h78q27 0 27 -24l133 -522q6 -20 14 -60.5t10 -48.5h33q6 12 24.5 51t30.5 62l275 522q13 20 31 20h79q33 0 29 -32l-69 -746h-64l66 725h-25l-332 -629q-8 -18 -31 -18h-65 q-27 0 -31 25l-160 622h-26l-133 -725h-64z" />
<glyph unicode="&#x25fc;" horiz-adv-x="983" d="M0 0v983h983v-983h-983z" />
<glyph unicode="&#xfb01;" horiz-adv-x="1146" d="M-258 -416l8 62h160q111 0 162 47t67 168l148 1054h-178l8 62l180 8l29 199q18 143 87.5 211.5t211.5 68.5q158 0 243 -10l-4 -61h-213q-117 0 -173 -50.5t-72 -168.5l-27 -187h635l-142 -987h-79l129 915h-551l-152 -1065q-18 -141 -84.5 -208.5t-197.5 -67.5 q-88 0 -195 10zM956 1245l19 123q4 31 35 31h34q35 0 31 -35l-18 -125q-2 -29 -33 -29h-37q-35 0 -31 35z" />
<glyph unicode="&#xfb02;" horiz-adv-x="1275" d="M-258 -416l8 62h160q111 0 162 47t67 168l148 1054h-178l8 62l180 8l29 199q18 143 87.5 211.5t211.5 68.5q406 -8 477 -16l-170 -1239q-25 -154 131 -154h117l2 -53q-45 -16 -144 -16q-100 0 -152 57t-38 160l168 1192h-365q-117 0 -173 -50.5t-72 -170.5l-27 -187h334 l-11 -72h-331l-152 -1065q-18 -141 -84.5 -208.5t-197.5 -67.5q-88 0 -195 10z" />
</font>
</defs>
</svg>
